<?xml version="1.0" encoding="UTF-8"?>
<!DOCTYPE svg PUBLIC "-//W3C//DTD SVG 1.1//EN" "http://www.w3.org/Graphics/SVG/1.1/DTD/svg11.dtd">
<!-- Creator: CorelDRAW -->
<svg xmlns="http://www.w3.org/2000/svg" xml:space="preserve" width="8.5in" height="11in" version="1.1" style="shape-rendering:geometricPrecision; text-rendering:geometricPrecision; image-rendering:optimizeQuality; fill-rule:evenodd; clip-rule:evenodd"
viewBox="0 0 8500 11000"
 xmlns:xlink="http://www.w3.org/1999/xlink">
 <defs>
  <style type="text/css">
   <![CDATA[
    .fil4 {fill:#00913E}
    .fil1 {fill:#1F1A17}
    .fil5 {fill:#2B1E19}
    .fil8 {fill:#383431}
    .fil39 {fill:#393529}
    .fil40 {fill:#4B3733}
    .fil12 {fill:#53514E}
    .fil15 {fill:#7E7B79}
    .fil36 {fill:#898684}
    .fil13 {fill:#B5B4B3}
    .fil34 {fill:#BDBBBB}
    .fil35 {fill:#C2C1C1}
    .fil41 {fill:#C8241C}
    .fil26 {fill:#C8C7C7}
    .fil17 {fill:#CAC9C9}
    .fil30 {fill:#CBCBCB}
    .fil14 {fill:#CECDCD}
    .fil32 {fill:#D0CFCF}
    .fil24 {fill:#D2D1D1}
    .fil20 {fill:#D4D3D3}
    .fil7 {fill:#D5241C}
    .fil25 {fill:#D6D5D5}
    .fil37 {fill:#D8D7D7}
    .fil21 {fill:#D9D8D7}
    .fil16 {fill:#DCDBDB}
    .fil28 {fill:#E0DFDE}
    .fil19 {fill:#E4E4E3}
    .fil42 {fill:#E77817}
    .fil6 {fill:#E7B602}
    .fil31 {fill:#E9E9E9}
    .fil23 {fill:#EAEAEA}
    .fil22 {fill:#ECEBEB}
    .fil18 {fill:#EEEDED}
    .fil2 {fill:#F0A500}
    .fil27 {fill:#F0F0F0}
    .fil10 {fill:#F2BE00}
    .fil29 {fill:#F3F3F3}
    .fil11 {fill:#F6C100}
    .fil33 {fill:#F6F5F5}
    .fil3 {fill:#F8C300}
    .fil43 {fill:#F8F7F7}
    .fil44 {fill:#FCFCFC}
    .fil9 {fill:#FDFDFD}
    .fil38 {fill:#FFF9E3}
    .fil0 {fill:white}
    .fil45 {fill:black;fill-rule:nonzero}
    .fil46 {fill:#1F1A17;fill-rule:nonzero}
    .fil47 {fill:#FF6600;fill-rule:nonzero}
   ]]>
  </style>
 </defs>
 <g id="Layer_x0020_1">
  <metadata id="CorelCorpID_0Corel-Layer"/>
  <g id="KabupatenNiasSelatanLogo_x0020_-_x0028_KoleksiLogo.com_x0029_.cdr">
   <path class="fil0" d="M4658 5809l16 13c10,12 30,45 25,62l-7 6c-16,17 -30,16 -55,21 -19,3 -34,8 -56,13 0,-25 -18,-48 -24,-149 28,0 59,0 84,16 1,0 8,6 9,7 10,10 -1,-5 8,11zm-189 -419c13,24 5,42 13,72 7,27 8,53 8,84 19,22 15,62 15,95 23,31 16,63 19,108 10,3 13,-14 7,12 5,17 11,36 14,55 3,27 -3,35 -2,57 16,6 13,-10 11,15 12,23 9,37 17,62 5,14 9,19 -2,30 23,5 11,-1 17,12l-30 15c-1,-1 -2,1 -4,2l9 -3c2,35 2,10 -5,15 -20,13 -40,9 -64,11 -24,2 -38,9 -56,12 -19,25 -72,-8 -116,2 -5,17 -11,17 -24,19 -9,-11 -9,-16 -8,-27 -34,-1 -68,16 -93,4 19,-20 20,-4 38,-17 -7,-3 -8,-3 -14,-7l-16 -12c-1,0 -2,0 -3,0 -33,2 -10,6 -37,15 -14,5 -42,6 -58,10 -33,7 -78,22 -114,23 -57,1 -60,-16 -115,6 -29,12 -35,11 -58,0 -28,-13 -38,-8 -53,-16 -1,-4 -2,-2 0,-13l10 -30 37 7c8,2 11,-1 23,0 8,-5 10,-7 16,-13l2 -16c21,-5 28,-13 45,-14 15,-18 11,-11 9,-41 -1,-20 0,-32 5,-48 -1,-31 -5,-12 12,-17l4 -5c-11,-9 -9,18 -9,-12l-5 0c0,-24 -1,-41 3,-66 8,-53 7,-39 21,-42l4 -4c-5,-1 -8,2 -14,-3 0,-25 -11,-46 6,-80 14,-28 3,-4 4,-59 0,-22 4,-33 5,-53 7,-5 11,-2 15,-2 -8,-18 -20,-70 4,-84 0,-17 -4,-15 -4,-29 1,-10 0,-7 3,-15 3,-7 4,-7 5,-9l1 -8c-10,-9 -3,6 -8,-12 -2,-5 -3,-9 -1,-14 2,-13 4,-12 17,-16 39,5 163,-10 209,-16 35,-4 72,-5 106,-9 37,-4 69,-11 97,2 14,-4 17,-1 30,4 4,1 12,3 15,5 10,5 8,5 15,11 8,-3 -12,-8 14,-1 20,4 19,21 19,44 -6,4 -4,3 -11,4zm-170 -511c11,14 -4,4 21,8 22,3 1,3 19,2 11,-15 15,-28 23,-49 21,5 -2,3 14,6 10,2 2,0 18,-1 -1,27 -7,9 12,22 21,15 33,10 42,30 -4,20 -16,20 -34,29 -14,15 -33,18 -54,31l-3 9c4,11 -9,6 12,7l40 -24 32 25 -41 0c11,13 11,7 18,25l-33 0c12,11 16,8 18,28 -11,-2 -7,-2 -16,-8 -17,-11 -24,-14 -32,-31 -10,17 -6,16 7,27 7,5 16,13 22,17 -7,35 -14,54 -9,96 15,43 29,34 60,55 7,5 5,4 9,8 -32,6 -39,-1 -50,0 -12,0 -3,-1 -10,3 14,8 8,5 18,18 -9,10 -25,22 -41,9l-13 -12c0,-2 -2,-2 -3,-3 -20,40 -62,16 -102,14 -40,17 -28,-5 -73,29 -18,13 -71,11 -88,3 12,-25 72,-37 97,-48l4 -9c-16,-4 -21,-10 -29,-19l-73 -10c-39,48 -65,44 -101,70 -63,45 -3,27 -80,15 -28,-4 -27,1 -38,-18 31,-6 46,5 75,-11 34,-21 112,-109 146,-115 28,-10 44,5 84,-15 18,-10 39,-26 39,-54 -29,9 -59,22 -77,-1 -14,-25 0,-38 9,-60 10,-23 3,-42 12,-60 60,-10 10,57 10,101l50 -27c7,-11 5,-11 21,-6l13 -20c-26,1 -32,8 -50,17 2,-15 4,-17 17,-24 -22,-11 -8,4 -24,-9l19 -7c-12,-10 -6,-1 -13,-21 22,3 18,11 45,7 -24,-2 -28,-8 -44,-23 -17,-18 -25,-15 -39,-27 17,-12 29,-7 75,-24 10,25 22,49 56,40 -8,-18 -5,-32 -3,-50l-10 -10c8,-33 20,-22 44,-28 1,1 1,2 1,2 6,23 4,7 23,22 -3,41 -20,28 -20,28 -20,0 -9,1 -22,21zm1049 1338c6,-9 -3,-9 27,-4 39,5 82,-7 78,23 10,29 24,67 2,96 -5,6 -31,20 -40,27 -11,10 -17,23 -30,33 -29,22 -69,9 -99,-7 -30,-16 -70,-19 -110,-20 -14,27 -47,68 -64,94 -22,32 -42,61 -59,96l61 -1c16,-16 6,-23 27,-47 10,-12 26,-26 34,-38 9,-15 13,-37 25,-48 17,-15 13,1 13,2 0,0 -6,21 -6,23l32 -3 -5 30 38 -2c3,5 2,0 1,8l-10 25 31 -1 2 24 25 1c4,-18 3,-21 5,-33 12,38 -18,45 -40,61 -23,17 -26,42 -61,47 -70,10 -51,-38 -178,-38 -22,25 -41,69 -38,111 22,-32 33,-50 73,-63 42,-14 87,-9 121,10 18,10 25,21 38,29 14,7 37,10 54,18 27,12 76,41 67,73 -26,-3 -52,-18 -87,-23 17,116 -37,191 -128,216 -103,29 -305,-36 -434,-64 -127,-27 -326,-65 -450,-61 -220,9 -399,37 -606,86 -103,24 -335,83 -411,-36 -36,-56 -23,-77 -30,-143 -27,0 -68,17 -81,14 -5,-16 10,-30 20,-40 39,-37 73,-32 96,-44 14,-7 19,-17 45,-26 82,-29 168,6 187,74 23,-43 -44,-162 -63,-182 -127,4 -200,-16 -249,-95 30,7 31,13 71,11 143,-7 83,44 170,71 -11,-30 -43,-69 -58,-97 -68,12 -129,21 -193,-25 -18,-13 -24,-24 -37,-35 23,2 28,9 57,5 23,-4 41,-11 66,-8 38,5 58,41 96,50 -10,-22 -29,-49 -42,-68 -99,17 -189,-3 -228,-68 49,10 103,-6 132,4 32,12 54,47 88,53 -8,-14 -45,-75 -56,-86 -37,4 -153,59 -207,-58 89,21 60,0 110,7 19,3 64,28 87,36 -8,-20 -24,-43 -38,-60 -105,39 -173,12 -207,-74 16,7 30,15 53,16 116,5 36,0 150,48 -12,-26 -30,-52 -43,-78 -42,7 -90,32 -138,12 -27,-11 -67,-52 -75,-83 53,29 68,5 117,18 25,7 59,33 89,43l-32 -71c-94,15 -143,42 -205,-82 18,5 24,13 49,16 20,3 44,0 63,5 15,4 63,35 83,45l-29 -60c-37,-2 -157,33 -188,-103 51,27 49,14 103,29 30,9 43,36 76,49l-29 -77c-51,-2 -89,13 -130,-14 -22,-15 -52,-54 -58,-91 45,31 58,14 104,30 29,10 47,43 79,52l-14 -49c-65,-6 -161,-6 -182,-114 74,57 70,-22 176,93 -12,-55 -7,-57 -30,-64l-49 -9c-65,-14 -92,-48 -111,-116 17,8 24,18 49,26 19,5 40,5 57,14 23,13 48,53 70,73l-9 -47c-7,-21 -33,-20 -65,-31 -57,-18 -99,-59 -103,-130 32,22 40,31 87,41l-34 -24c-11,-10 -18,-18 -25,-28 -16,-25 -23,-52 -22,-86 17,15 19,23 44,35 97,43 51,62 108,120l-3 -81c-81,-36 -149,-54 -148,-169 16,12 15,21 38,34 19,11 35,13 50,27 21,20 28,47 41,74 5,8 2,5 8,12 7,9 3,5 10,10l2 -71c-75,-44 -142,-59 -136,-178 29,23 23,36 71,51 -3,-4 -2,-2 -6,-8 -1,-1 -4,-4 -5,-5 -34,-37 -43,-73 -41,-127 15,6 9,7 19,20 17,21 42,27 62,48 21,24 19,82 45,101l11 -66c-8,-39 -130,-39 -103,-211 20,23 27,45 56,62 -23,-35 -51,-97 -20,-148 21,33 40,51 59,80 22,33 11,80 30,110l23 -72c-67,-53 -115,-141 -71,-223 10,17 11,27 23,45 58,83 26,80 49,170 6,-12 30,-68 30,-79 0,-14 -33,-46 -43,-59 -38,-50 -39,-104 -7,-160 68,56 42,128 53,206 8,-6 32,-50 34,-57 6,-24 1,-54 10,-82 13,-41 53,-66 101,-80 -6,51 -17,95 -46,121 -46,42 -47,24 -71,89 24,-14 44,-35 82,-38 20,-1 89,3 113,5 -24,19 -34,42 -77,54 -41,11 -84,-1 -128,2 -14,17 -25,47 -30,74 17,-9 8,-5 21,-17 17,-15 37,-25 63,-27 20,-2 41,0 61,-2 19,-1 35,-7 53,-9 -48,83 -128,76 -212,90l-17 63c17,-22 44,-50 80,-57 50,-10 46,0 122,-20 -36,102 -126,76 -208,98l-10 52c1,0 2,-2 3,-2l15 -15c20,-19 35,-31 65,-34 50,-7 71,-2 114,-20 -6,32 -44,66 -74,78 -33,13 -100,2 -126,23 -9,13 -10,40 -11,58l17 -19c34,-40 95,-35 162,-59 -24,98 -105,88 -183,111l-5 58 16 -19c7,-10 7,-10 16,-18 30,-26 104,-33 146,-51 -19,86 -89,97 -180,115l1 57c30,-24 14,-42 74,-60 48,-14 56,-18 90,-39 -9,89 -84,114 -164,133l1 55c29,-35 14,-43 68,-63 41,-14 53,-20 81,-43 0,72 -39,99 -90,122 37,-5 72,-21 99,-36 -4,93 -73,92 -146,119l6 40c1,-1 2,-2 2,-3l8 -9c15,-21 34,-32 59,-41 31,-12 53,-23 75,-39 2,99 -70,98 -136,132l12 45c10,-34 29,-47 58,-62 35,-16 48,-26 76,-45 3,120 -73,92 -126,146l11 33c22,-53 88,-66 129,-105 12,94 -55,110 -115,142 1,11 2,17 5,26l10 20c10,-32 29,-46 53,-63l56 -53c26,112 -52,109 -91,163l16 30c22,-24 23,-30 53,-55 23,-19 34,-37 52,-52 33,91 -40,115 -83,159l18 36c13,-45 14,-45 46,-71 18,-15 44,-49 57,-56 26,98 -41,106 -86,152 2,18 13,34 24,47 20,-65 52,-67 78,-127 22,25 27,64 5,96 -13,20 -45,49 -62,68 10,19 19,35 31,50 7,-51 48,-94 74,-142 61,58 -19,131 -53,177l33 49c0,-38 10,-56 25,-82 14,-23 20,-47 32,-69 38,41 36,77 8,128 -37,65 -52,48 -9,111 2,-48 5,-53 24,-86l35 -72c46,44 26,95 -3,142 -39,62 -32,64 11,122 -3,-48 -8,-63 12,-104l37 -85c82,131 -14,155 -25,217 -6,35 103,133 51,226l-1 34c45,-46 51,-95 69,-106 14,-47 22,-52 51,-79 0,12 -3,27 -2,38 1,17 -2,23 12,24l3 -10c7,-28 26,-57 49,-74l1 61 7 -7c8,-26 25,-41 40,-52l2 55c18,-5 3,-8 24,-38l33 -33c-1,21 -6,43 8,57 7,-36 31,-50 48,-68l2 58 3 -3c10,-14 9,-20 21,-36 12,-15 11,-15 27,-25l-2 51c2,6 1,2 7,6 15,-37 26,-53 53,-72 -1,13 -14,57 4,58 5,-29 25,-57 42,-67l2 59c8,-7 0,8 8,-8 5,-18 13,-30 26,-38l8 -10c0,20 -2,35 4,50 24,-31 21,-48 53,-69l4 57 6 -21 35 -173 49 171 6 0c5,-34 38,-197 51,-215l53 239 7 -2 45 -193 35 166 7 9 -1 -44c25,10 40,44 54,68 8,-24 7,-27 3,-52l7 9c16,9 19,14 25,32 12,15 -2,2 14,11l1 -54 7 8c19,14 31,37 36,59 17,-10 4,-37 5,-58 23,20 31,25 44,54 5,8 3,6 7,13 5,8 2,4 8,10 2,-23 -1,-43 0,-62l11 12c17,11 29,30 35,54l7 -15 -2 -45c18,11 41,37 49,63 8,5 1,4 9,1l-1 -54c14,9 25,20 34,34l23 45 5 -17 1 -37c19,8 18,9 29,24 8,13 7,17 17,25l1 -58c20,15 40,38 50,72l8 20c10,-26 7,-39 4,-70 32,15 42,51 56,81 22,9 10,20 32,64 13,25 27,41 42,57 -2,-21 -2,-62 -9,-75 -19,-47 19,-105 34,-140 -16,-27 -19,-35 -49,-47 -21,-9 -40,-22 -51,-40 -17,-28 -6,-51 -11,-81 -6,-41 -18,-27 9,-62 -8,18 1,23 10,33 14,-5 12,-7 24,-13 9,9 12,16 21,25 9,-18 6,-19 23,-28l23 34c12,-6 6,-4 13,-10 1,-1 2,-2 3,-2l8 -6c13,12 8,13 20,24 7,-7 4,-4 10,-13l9 -17c8,15 8,5 4,29 -4,25 -18,34 -26,61 -14,47 -28,42 -45,70 6,15 4,17 15,28 19,-28 39,-60 58,-90 19,-30 41,-58 60,-86 -3,-8 -15,-23 -21,-27 -11,-7 -20,-6 -34,-9 -70,-17 -59,-51 -77,-106 -14,-47 -23,-10 -5,-66 5,22 -5,14 18,33 15,-9 6,-9 24,-17l21 22 13 -33c19,7 17,16 33,29 16,-12 6,-13 26,-23l17 22c11,-10 12,-23 14,-37 -53,-33 -35,-37 -56,-92 -15,-41 -36,-35 8,-94 -8,19 -15,24 -17,48 14,5 13,9 25,5l14 -10c0,-2 2,-2 4,-3l22 19 10 -33c19,6 23,16 37,27 7,-12 9,-17 22,-25 11,10 10,14 23,23 6,-20 14,-24 -4,-37 23,3 27,10 24,37 -1,19 -8,26 -10,48 -4,56 -10,49 -27,86l17 24c1,0 2,-1 3,-2l14 -19c5,-8 8,-14 12,-22 9,-16 17,-30 25,-46 15,-30 31,-68 41,-102 -25,-28 -24,-24 -70,-30 -77,-11 -58,-61 -91,-106 -19,-28 -14,-32 2,-60 -10,27 -6,21 11,37 14,-5 11,-10 24,-19 10,7 14,10 26,17l8 -33c26,7 14,15 38,25 8,-10 8,-15 17,-26 16,8 17,20 27,17 10,-19 8,-24 -5,-33 44,4 19,51 19,86 0,47 -5,51 -23,86l23 24c20,-44 55,-149 58,-206 -33,-4 -38,-14 -77,-19 -72,-10 -58,-54 -83,-100 -24,-42 -17,-18 -7,-62 6,20 -15,14 18,32 12,-6 6,-8 19,-19l19 19 7 -17c4,-9 -1,-4 7,-16 27,11 11,14 34,23l14 -24c14,7 11,10 24,19 3,-7 3,-11 4,-19 2,-7 1,-6 3,-11l3 -7c21,32 4,49 4,90 1,52 -15,53 -19,87 10,5 20,8 36,10l21 -211c-14,-6 -28,-14 -38,-19 -20,-10 -25,-2 -52,-5 -58,-6 -53,-53 -81,-87 -9,-11 -19,-18 -17,-36 1,-6 12,-40 14,-44 9,-14 13,-8 26,-25 -15,32 -12,1 -27,30 -6,13 -7,30 -4,42 27,7 18,4 30,-15 14,6 15,9 27,14l3 -33c19,5 18,11 34,19 15,-17 4,-5 12,-25 21,7 11,11 30,14l1 -26 -15 -8c36,-2 30,35 30,64 0,56 8,47 -9,104 14,10 19,13 38,20l1 -193c-4,-4 -51,-34 -53,-34 -22,-11 -48,1 -71,-15 -18,-12 -23,-29 -32,-54 -12,-31 -25,-28 -28,-61l26 11 7 -21c15,5 14,7 25,12l6 -31c13,5 19,12 29,21l12 -27c16,7 7,9 23,13l1 -24c-17,-10 -14,0 -23,-12 46,20 34,-16 37,75 2,52 6,45 -8,95 16,14 23,22 48,30 -1,-70 -11,-138 -22,-205 -17,-6 -31,-9 -46,-16 -24,-11 -20,-10 -48,-4l0 8c-39,-5 -64,-18 -85,-53 -23,-38 -57,-51 -40,-90 0,16 -3,28 15,27 21,0 3,-1 19,-21l23 11 -3 -36c19,2 20,8 37,14l4 -29c18,4 11,4 28,11 -1,-12 2,-17 -7,-26 -7,-9 -14,-1 -17,-7 0,-2 -2,-1 -3,-1l29 -1c22,39 12,40 25,80 15,42 8,48 10,92 19,10 30,18 55,20 -7,-37 -42,-198 -90,-206 -65,-10 -55,-17 -85,-63 -11,-16 -30,-27 -34,-40 -4,-14 -2,-53 3,-64 0,18 -6,42 6,52 20,19 20,-7 24,-19 13,4 17,5 28,12l-4 -37c23,1 19,7 39,13l6 -32 27 14 -3 -30c-18,-4 -20,0 -30,-3 52,-21 49,36 58,70 18,72 25,35 8,113 -7,34 21,75 32,106 13,36 19,75 31,109 12,-13 17,-26 23,-43 -7,-14 -18,-21 -27,-39 -23,-45 0,-25 -42,-89 -13,-20 -8,-22 -1,-39 9,25 1,13 20,30l12 -27c16,6 12,7 24,15 9,-11 11,-22 21,-36 5,5 16,18 23,25 6,-8 9,-15 15,-25 7,3 14,8 23,12 11,-18 4,-16 21,-24 -3,90 46,112 -25,170 -14,11 -35,20 -44,32 -35,44 -40,60 -32,108 7,47 11,94 13,141 19,-11 26,-26 43,-36 -12,-46 -14,-29 -14,-88 1,-32 -19,-59 -10,-81 12,3 13,15 21,26l15 -22c12,7 4,0 14,12 5,5 2,4 8,10 16,-12 12,-18 28,-26l12 22c0,1 1,5 1,4 0,-1 1,3 2,4 8,-7 10,-10 19,-18 1,1 2,2 3,3 7,6 10,10 20,12 12,-13 8,-12 15,-27 6,33 -8,50 -8,86 -1,83 -69,63 -111,91 -15,10 -48,34 -54,48l-4 221c25,-11 37,-16 51,-35 -17,-28 -7,-49 -3,-81 4,-35 -11,-49 -2,-82 16,7 11,8 16,29 14,-9 10,-12 26,-19l13 24 15 -12c11,-10 1,-5 20,-12l8 32c12,-7 8,-8 26,-14l10 18 22 -11 -2 -23c10,47 3,24 -9,65 -9,27 0,43 -18,63l-32 28c-13,13 -43,3 -73,11 -6,2 -50,24 -55,27 -19,13 -16,33 -18,64 -4,46 -9,99 -18,143 24,-4 44,-22 61,-32 -9,-47 -8,-40 1,-86 7,-35 -6,-51 2,-84 18,9 8,6 17,30l23 -19c5,6 10,20 15,26 13,-10 17,-17 35,-22l4 34c16,-7 7,-7 25,-17l13 21c13,-7 15,-11 29,-15 -4,23 -19,31 -24,60 -19,103 -74,59 -150,94 -71,33 -49,14 -67,97 -11,47 -26,84 -38,127 25,-6 37,-13 56,-23 5,-46 -2,-38 13,-82 12,-33 1,-57 13,-84 17,11 5,9 17,31 5,-6 13,-12 22,-17l13 29c16,-9 15,-14 36,-19l0 35 29 -12c9,22 1,24 29,16 8,-27 -8,-25 1,-47 4,48 16,35 -10,73 -16,22 -15,49 -31,66 -44,47 -77,6 -181,44 -20,7 -16,2 -23,25 -9,26 -16,42 -26,65 -19,44 -43,85 -63,125l66 -26c6,-24 13,-43 27,-64 15,-24 14,-51 27,-80 11,-2 30,-4 42,5 -30,-12 -32,-4 -33,26 16,-6 18,-11 32,-7l2 28 40 -13 -5 37 30 -9 7 24c30,-4 19,-3 26,-27 3,44 -9,30 -29,54 -11,14 -18,41 -34,53 -44,34 -90,-1 -141,3 -87,6 -66,8 -104,68 -19,29 -58,77 -69,104l66 -2c17,-38 20,-43 49,-75 16,-19 29,-74 47,-62zm-436 -1680c33,11 48,-19 78,-57 11,-16 19,-24 32,-40 13,-15 19,-24 9,-49 22,13 28,19 46,35l-11 140c15,-14 26,-30 40,-47 16,-18 29,-30 14,-54 16,4 25,18 43,27 -1,1 -2,1 -3,1l-9 3c-16,4 -14,1 -32,22 -27,31 -74,98 -100,117l15 -191 -29 32c-35,43 -67,65 -48,99 -12,-4 -38,-24 -45,-38zm-1526 -110c8,-11 27,-29 43,-36 -11,27 -2,33 13,51l64 75c7,9 9,10 15,19l15 22 -186 -49c43,51 73,113 114,99 -7,13 -31,33 -44,38 14,-33 2,-39 -41,-88 -42,-46 -46,-69 -79,-57 4,-10 4,-8 13,-17 31,-30 34,-21 62,-13 32,9 70,22 101,28 -8,-15 -26,-35 -38,-48 -17,-21 -21,-33 -52,-24zm1368 23c0,0 2,-1 3,-2 75,-41 63,-48 128,-98 15,-11 25,-22 40,-32 0,53 -38,171 -20,214l-67 -38c18,-10 23,17 29,-45l-51 -27c-29,23 -31,18 -15,52l-47 -24zm-1290 -78c7,-12 57,-42 74,-45 -21,16 -14,23 1,47l57 96c6,9 10,16 18,20 12,5 15,0 20,2l-72 41c15,-20 11,-26 -3,-49l-54 -90c-12,-19 -15,-32 -41,-22zm999 -23c37,-22 110,-128 133,-167 19,32 6,163 34,213l-71 -17c12,-9 16,-8 18,-24 4,-37 -21,-40 -58,-44 -39,45 -7,41 -4,55l-52 -16zm-804 63c0,11 -1,26 4,35 5,8 18,15 27,14l-50 19c27,-57 -3,-147 2,-215 26,23 48,53 75,76l58 56c5,5 5,4 11,8 2,1 6,3 7,4l-65 32c9,-12 7,-6 12,-21l-28 -29 -53 21zm1152 -95c1,-39 2,-43 -29,-57 -12,14 -32,72 -40,92 -26,66 -33,63 -9,83 -27,-1 -54,-21 -80,-28 14,-7 23,5 37,-31l35 -89c16,-38 20,-36 10,-44 -34,-16 -37,8 -57,20l18 -49 137 53 -15 41c-4,6 -4,5 -7,9zm-960 -131l10 49c-3,-3 -4,-5 -7,-8 -29,-30 -62,-20 -65,3 -6,39 53,37 81,49 31,12 52,53 32,87 -7,13 -22,24 -41,27 -43,4 -15,-9 -47,14l-20 -68c4,4 3,3 7,8 1,1 4,4 5,5 39,48 86,44 79,-14 -27,-20 -25,-16 -60,-25 -80,-21 -85,-120 19,-113l7 -14zm145 97c15,13 14,28 33,43 16,12 44,18 55,-4 21,-43 -49,-53 -75,-73 -33,-25 -35,-87 7,-100 20,-6 19,-2 36,0 40,5 9,-3 23,-5l8 22c3,12 4,22 5,35 -12,-13 -14,-28 -31,-38 -19,-10 -34,-4 -46,4 -15,69 82,39 99,102 9,34 -7,63 -27,72 -21,10 -26,5 -48,2 -25,-2 -12,2 -28,10l-11 -70zm306 47c14,-9 23,1 27,-37 2,-17 4,-37 6,-55 9,-90 16,-75 -12,-101l84 11c-16,7 -21,1 -26,26 -2,11 -3,33 -5,46 -3,32 -11,69 -7,101 63,38 76,-34 90,-42l-12 66 -145 -15zm-143 -184l-20 -11 135 0 0 57c-24,-28 1,-45 -75,-46l0 79c37,-5 24,-13 37,-42 9,18 4,70 2,97 -15,-22 -4,-37 -39,-43l3 79c18,4 36,5 52,-5 6,-4 12,-10 17,-17 3,-5 4,-7 7,-13 1,-1 4,-4 4,-7 1,-2 2,-2 4,-3l-8 59 -140 0c1,-1 3,-2 3,-2l14 -11c11,-16 5,-152 4,-171zm-581 -86c-255,110 -528,368 -671,603 -24,39 -43,73 -67,115 -86,149 -149,355 -182,547 -38,220 -26,456 20,669 50,230 150,454 277,630 53,73 144,185 211,245l47 44c40,37 166,129 209,156 988,612 2200,-9 2409,-1124 84,-448 -4,-859 -191,-1200 -80,-147 -163,-251 -274,-364 -16,-17 -29,-29 -45,-46 -17,-18 -31,-27 -49,-43 -87,-80 -288,-216 -391,-250 -26,-16 -106,-43 -142,-56 -359,-126 -840,-97 -1161,74z"/>
   <path class="fil1" d="M5975 8059l-3406 0 -1060 -3311 214 -144 1 -1c802,-525 1598,-1059 2400,-1584 31,-20 61,-44 94,-60l36 -18 36 17c13,6 26,16 38,23 23,15 46,29 68,44 77,50 153,99 229,149 224,148 449,296 673,445 331,218 661,437 991,656l578 382c30,20 74,44 98,71l26 29 -7 39c-13,69 -42,140 -62,208l-677 2199c-40,133 -80,265 -121,398 -27,88 -54,175 -81,262 -9,31 -19,63 -29,93 -6,18 -11,36 -18,53l-21 50z"/>
   <path class="fil0" d="M5920 7977c20,-46 227,-731 247,-798l677 -2199c17,-56 50,-144 59,-198 -11,-14 -62,-44 -82,-57l-577 -382c-115,-75 -1944,-1289 -1989,-1311 -28,13 -61,39 -86,55 -802,526 -1598,1059 -2400,1585l-163 110 1023 3195 3291 0z"/>
   <path class="fil1" d="M4881 4042c103,34 304,170 391,250 18,16 32,25 49,43 16,17 29,29 45,46 111,113 194,217 274,364 187,341 275,752 191,1200 -209,1115 -1421,1736 -2409,1124 -43,-27 -169,-119 -209,-156l-47 -44c-67,-60 -158,-172 -211,-245 -127,-176 -227,-400 -277,-630 -46,-213 -58,-449 -20,-669 33,-192 96,-398 182,-547 24,-42 43,-76 67,-115 143,-235 416,-493 671,-603l-76 -187c-143,49 -402,216 -519,328 -65,61 -76,66 -144,139 -9,10 -18,16 -27,26 -54,61 -130,156 -175,224 -97,147 -167,273 -232,449 -269,727 -143,1505 328,2110 16,21 32,39 49,60 47,58 143,154 198,201 360,306 789,485 1284,480 375,-4 744,-123 1034,-323l224 -174c10,-10 20,-17 31,-27 21,-17 35,-38 54,-56 120,-106 274,-322 343,-454 107,-205 192,-409 236,-670 111,-646 -75,-1307 -451,-1747 -11,-13 -14,-18 -23,-29 -10,-12 -18,-18 -28,-31l-113 -117c-120,-106 -170,-157 -318,-248 -66,-41 -232,-137 -304,-154l-68 182z"/>
   <path class="fil2" d="M3387 6721c-16,6 -55,-10 -47,32 5,23 33,34 63,24 54,-18 24,-86 -18,-103 -113,-44 -153,162 -13,162 118,0 141,-156 45,-199 -46,-21 -113,-16 -146,12 -30,26 -15,6 -66,25 -27,10 -45,23 -54,42 33,-7 42,-14 80,-8 -1,86 -5,180 124,207 100,21 208,-9 300,-30 498,-117 701,-112 1197,7 88,21 205,58 297,31 88,-25 135,-105 110,-216 38,1 55,12 87,18 -32,-48 -55,-37 -108,-60 -15,-7 -10,-9 -24,-20 -25,-21 -64,-31 -98,-28 -118,12 -129,157 -57,197 94,53 192,-72 108,-141 -39,-32 -101,-10 -110,34 -13,67 47,87 85,48 8,-53 -23,-40 -46,-53 13,-23 61,2 60,43 -1,33 -40,50 -75,38 -61,-21 -50,-137 43,-137 74,1 114,92 66,151 -15,19 -47,40 -86,41 -68,0 -140,-90 -162,-156 -10,-28 -3,-22 -34,-28 -480,-96 -603,-152 -1112,-46 -69,14 -139,32 -210,45 -27,5 -24,4 -34,27 -32,71 -60,87 -78,114 -31,47 -113,79 -175,28 -55,-45 -32,-146 36,-162 83,-21 145,78 86,121 -25,18 -72,14 -87,-13 -9,-15 -10,-35 2,-48 6,-6 39,-25 51,1z"/>
   <path class="fil3" d="M3028 5511c-1,1 -3,2 -3,2l-36 40 -1 -28 40 -14zm-52 56c-20,-12 -25,-23 -37,-45l-34 -52c62,26 61,19 65,43 1,5 2,13 2,18 2,13 2,24 4,36zm-75 -373c25,11 49,31 73,43l-6 74c-19,-16 -20,-34 -31,-62 -5,-15 -8,-22 -15,-32 -4,-5 -7,-8 -12,-13 0,-1 -4,-4 -4,-5l-5 -5zm87 -58c-12,-14 -17,-61 -35,-111 7,5 3,2 10,7l41 38 -16 66zm-87 58c-48,-15 -42,-28 -71,-51 -6,119 61,134 136,178l-2 71c-7,-5 -3,-1 -10,-10 -6,-7 -3,-4 -8,-12 -13,-27 -20,-54 -41,-74 -15,-14 -31,-16 -50,-27 -23,-13 -22,-22 -38,-34 -1,115 67,133 148,169l3 81c-57,-58 -11,-77 -108,-120 -25,-12 -27,-20 -44,-35 -1,34 6,61 22,86 7,10 14,18 25,28l34 24c-47,-10 -55,-19 -87,-41 4,71 46,112 103,130 32,11 58,10 65,31l9 47c-22,-20 -47,-60 -70,-73 -17,-9 -38,-9 -57,-14 -25,-8 -32,-18 -49,-26 19,68 46,102 111,116l49 9c23,7 18,9 30,64 -106,-115 -102,-36 -176,-93 21,108 117,108 182,114l14 49c-32,-9 -50,-42 -79,-52 -46,-16 -59,1 -104,-30 6,37 36,76 58,91 41,27 79,12 130,14l29 77c-33,-13 -46,-40 -76,-49 -54,-15 -52,-2 -103,-29 31,136 151,101 188,103l29 60c-20,-10 -68,-41 -83,-45 -19,-5 -43,-2 -63,-5 -25,-3 -31,-11 -49,-16 62,124 111,97 205,82l32 71c-30,-10 -64,-36 -89,-43 -49,-13 -64,11 -117,-18 8,31 48,72 75,83 48,20 96,-5 138,-12 13,26 31,52 43,78 -114,-48 -34,-43 -150,-48 -23,-1 -37,-9 -53,-16 34,86 102,113 207,74 14,17 30,40 38,60 -23,-8 -68,-33 -87,-36 -50,-7 -21,14 -110,-7 54,117 170,62 207,58 11,11 48,72 56,86 -34,-6 -56,-41 -88,-53 -29,-10 -83,6 -132,-4 39,65 129,85 228,68 13,19 32,46 42,68 -38,-9 -58,-45 -96,-50 -25,-3 -43,4 -66,8 -29,4 -34,-3 -57,-5 13,11 19,22 37,35 64,46 125,37 193,25 15,28 47,67 58,97 -87,-27 -27,-78 -170,-71 -40,2 -41,-4 -71,-11 49,79 122,99 249,95 19,20 86,139 63,182 -1,18 -4,17 5,28 52,-93 -57,-191 -51,-226 11,-62 107,-86 25,-217l-37 85c-20,41 -15,56 -12,104 -43,-58 -50,-60 -11,-122 29,-47 49,-98 3,-142l-35 72c-19,33 -22,38 -24,86 -43,-63 -28,-46 9,-111 28,-51 30,-87 -8,-128 -12,22 -18,46 -32,69 -15,26 -25,44 -25,82l-33 -49c34,-46 114,-119 53,-177 -26,48 -67,91 -74,142 -12,-15 -21,-31 -31,-50 17,-19 49,-48 62,-68 22,-32 17,-71 -5,-96 -26,60 -58,62 -78,127 -11,-13 -22,-29 -24,-47 45,-46 112,-54 86,-152 -13,7 -39,41 -57,56 -32,26 -33,26 -46,71l-18 -36c43,-44 116,-68 83,-159 -18,15 -29,33 -52,52 -30,25 -31,31 -53,55l-16 -30c39,-54 117,-51 91,-163l-56 53c-24,17 -43,31 -53,63l-10 -20c-3,-9 -4,-15 -5,-26 60,-32 127,-48 115,-142 -41,39 -107,52 -129,105l-11 -33c53,-54 129,-26 126,-146 -28,19 -41,29 -76,45 -29,15 -48,28 -58,62l-12 -45c66,-34 138,-33 136,-132 -22,16 -44,27 -75,39 -25,9 -44,20 -59,41l-8 9c0,1 -1,2 -2,3l-6 -40c73,-27 142,-26 146,-119 -27,15 -62,31 -99,36 51,-23 90,-50 90,-122 -28,23 -40,29 -81,43 -54,20 -39,28 -68,63l-1 -55c80,-19 155,-44 164,-133 -34,21 -42,25 -90,39 -60,18 -44,36 -74,60l-1 -57c91,-18 161,-29 180,-115 -42,18 -116,25 -146,51 -9,8 -9,8 -16,18l-16 19 5 -58c78,-23 159,-13 183,-111 -67,24 -128,19 -162,59l-17 19c1,-18 2,-45 11,-58 26,-21 93,-10 126,-23 30,-12 68,-46 74,-78 -43,18 -64,13 -114,20 -30,3 -45,15 -65,34l-15 15c-1,0 -2,2 -3,2l10 -52c82,-22 172,4 208,-98 -76,20 -72,10 -122,20 -36,7 -63,35 -80,57l17 -63c84,-14 164,-7 212,-90 -18,2 -34,8 -53,9 -20,2 -41,0 -61,2 -26,2 -46,12 -63,27 -13,12 -4,8 -21,17 5,-27 16,-57 30,-74 44,-3 87,9 128,-2 43,-12 53,-35 77,-54 -24,-2 -93,-6 -113,-5 -38,3 -58,24 -82,38 24,-65 25,-47 71,-89 29,-26 40,-70 46,-121 -48,14 -88,39 -101,80 -9,28 -4,58 -10,82 -2,7 -26,51 -34,57 -11,-78 15,-150 -53,-206 -32,56 -31,110 7,160 10,13 43,45 43,59 0,11 -24,67 -30,79 -23,-90 9,-87 -49,-170 -12,-18 -13,-28 -23,-45 -44,82 4,170 71,223l-23 72c-19,-30 -8,-77 -30,-110 -19,-29 -38,-47 -59,-80 -31,51 -3,113 20,148 -29,-17 -36,-39 -56,-62 -27,172 95,172 103,211l-11 66c-26,-19 -24,-77 -45,-101 -20,-21 -45,-27 -62,-48 -10,-13 -4,-14 -19,-20 -2,54 7,90 41,127 1,1 4,4 5,5 4,6 3,4 6,8z"/>
   <path class="fil4" d="M5196 6151c48,13 52,1 80,37 -30,58 -81,118 -103,159 -14,-10 -10,-11 -19,-24 12,-29 27,-33 32,-77 6,-52 20,-36 10,-95zm382 -855c11,-27 53,-25 53,-7 3,1 10,1 12,1 4,1 9,1 12,2 21,6 45,28 37,52 -6,21 4,22 -17,61 -9,27 0,43 -18,63l-32 28c-13,13 -43,3 -73,11 -6,2 -50,24 -55,27 -19,13 -16,33 -18,64 -4,46 -9,99 -18,143 24,-4 44,-22 61,-32 -9,-47 -8,-40 1,-86 7,-35 -6,-51 2,-84 2,1 3,1 4,2 8,-11 22,-20 37,-23 4,-1 9,-1 13,0 1,0 5,1 6,1 15,-24 57,-17 54,1 3,1 10,2 12,3 3,1 8,2 12,3 18,9 29,30 22,51l1 0c-4,23 -19,31 -24,60 -19,103 -74,59 -150,94 -71,33 -49,14 -67,97 -11,47 -26,84 -38,127 25,-6 37,-13 56,-23 5,-46 -2,-38 13,-82 11,-29 4,-50 10,-73 -1,-1 -1,-2 -1,-3 1,-1 2,-2 2,-3 1,-2 1,-3 2,-5l1 1c8,-11 21,-19 36,-23 4,-1 9,-1 13,0 1,1 5,2 6,2 15,-25 56,-17 54,1 3,1 9,2 11,2 4,1 9,2 13,4 19,9 30,33 20,56 0,7 -5,28 -17,46 -16,22 -15,49 -31,66 -44,47 -77,6 -181,44 -20,7 -16,2 -23,25 -9,26 -16,42 -26,65 -19,44 -43,85 -63,125l66 -26c6,-24 13,-43 27,-64 15,-24 14,-51 27,-80l3 -1c11,-9 26,-14 42,-14 4,0 8,1 13,3 1,0 4,2 5,3 20,-21 59,-3 52,13 3,2 9,5 11,5 3,2 8,4 11,7 17,13 22,40 6,59 0,1 -1,2 -1,2 -1,28 -12,20 -30,41 -11,14 -18,41 -34,53 -44,34 -90,-1 -141,3 -87,6 -66,8 -104,68 -19,29 -58,77 -69,104l66 -2c17,-38 20,-43 49,-75 15,-18 27,-67 44,-63 12,-6 27,-6 41,-2 5,1 9,3 12,6 1,1 4,4 5,4 24,-14 57,13 46,27 2,2 7,7 9,8 3,3 7,6 9,9 13,18 10,44 -10,59 0,1 -1,1 -2,2l0 3c-5,6 -31,20 -40,27 -11,10 -17,23 -30,33 -29,22 -69,9 -99,-7 -30,-16 -70,-19 -110,-20 -14,27 -47,68 -64,94 -22,32 -42,61 -59,96l61 -1c16,-16 6,-23 27,-47 10,-12 26,-26 34,-38 9,-15 13,-37 25,-48 6,-5 9,-7 11,-6 13,-7 29,-7 43,-3 5,1 9,3 12,6 1,1 4,4 5,5 24,-15 57,12 46,26 3,3 8,7 9,8 3,3 7,6 9,9 13,18 11,45 -9,59 -2,1 -3,2 -4,3l1 1c-9,11 -24,18 -37,27 -23,17 -26,42 -61,47 -70,10 -51,-38 -178,-38 -22,25 -41,69 -38,111 -4,26 3,11 -10,17 -19,-47 19,-105 34,-140 -16,-27 -19,-35 -49,-47 -21,-9 -40,-22 -51,-40 -17,-28 -6,-51 -11,-81 -5,-37 -15,-30 2,-52 -1,-1 0,-2 0,-3 1,-1 2,-2 5,-4l2 -3c0,1 -1,2 -1,2 5,-3 11,-7 14,-8 5,-3 15,-9 21,-9 4,0 13,0 17,-1 21,-24 32,-15 57,-3 6,3 7,6 8,12 1,5 14,6 17,7 9,2 38,25 36,36 3,3 2,4 -1,20 -4,25 -18,34 -26,61 -14,47 -28,42 -45,70 6,15 4,17 15,28 19,-28 39,-60 58,-90 19,-30 41,-58 60,-86 -3,-8 -15,-23 -21,-27 -11,-7 -20,-6 -34,-9 -70,-17 -59,-51 -77,-106 -13,-44 -22,-14 -8,-58 -1,-1 -2,-3 -1,-5 2,-3 14,-13 17,-16 5,-4 14,-11 20,-12 4,0 13,-1 17,-3 17,-26 29,-19 55,-11 6,2 8,5 10,11 1,5 13,5 17,5 3,0 10,3 16,7 -31,-23 -20,-33 -38,-80 -14,-38 -33,-36 -1,-82 0,0 0,0 0,0 1,-1 2,-2 3,-3 1,-3 4,-6 6,-9 -1,2 -2,4 -2,5 3,-3 7,-6 9,-8 4,-3 12,-9 17,-10 4,0 12,-1 15,-3 15,-23 26,-16 49,-9 6,2 7,4 9,10 1,4 12,4 15,4 8,0 38,18 36,27 12,5 14,14 12,35 -1,19 -8,26 -10,48 -4,56 -10,49 -27,86l17 24c1,0 2,-1 3,-2l14 -19c5,-8 8,-14 12,-22 9,-16 17,-30 25,-46 15,-30 31,-68 41,-102 -25,-28 -24,-24 -70,-30 -77,-11 -58,-61 -91,-106 -17,-25 -15,-31 -2,-52 0,-1 0,-1 0,-2 1,-3 10,-14 13,-16 3,-4 10,-12 15,-13 4,-1 11,-4 15,-5 11,-25 23,-21 47,-17 5,1 7,2 10,8 1,4 12,2 15,1 9,-1 40,12 40,22 37,7 14,51 14,85 0,47 -5,51 -23,86l23 24c20,-44 55,-149 58,-206 -33,-4 -38,-14 -77,-19 -72,-10 -58,-54 -83,-100 -24,-42 -17,-18 -7,-62 6,20 -15,14 18,32 12,-6 6,-8 19,-19l19 19 7 -17c4,-9 -1,-4 7,-16 27,11 11,14 34,23l14 -24c14,7 11,10 24,19 3,-7 3,-11 4,-19 2,-7 1,-6 3,-11l2 -4c-1,0 -2,1 -3,0 -2,0 -3,-1 -3,-3 -1,-3 -12,-8 -15,-9 -3,-2 -12,-6 -16,-5 -7,0 -19,2 -22,-6 -2,-3 -2,-3 -5,-4 -7,-1 -21,-4 -27,-2 -6,3 -10,10 -12,16 -1,3 -15,6 -18,7 -4,2 -21,20 -23,25 -1,1 -3,2 -4,2 -2,-1 -3,-3 -2,-4 0,-4 10,-14 12,-16 3,-4 10,-11 15,-13 3,-1 11,-3 14,-5 11,-24 23,-20 46,-16 6,1 7,2 9,7 2,4 13,3 16,2 8,-1 39,12 39,21 21,32 4,49 4,90 1,52 -15,53 -19,87 10,5 20,8 36,10l21 -211c-14,-6 -28,-14 -38,-19 -20,-10 -25,-2 -52,-5 -58,-6 -53,-53 -81,-87 -9,-11 -19,-18 -17,-36 3,-19 9,-40 22,-54 2,-3 8,-9 12,-10 1,-1 2,-1 3,-1 1,-1 2,-3 3,-4 -1,1 -1,2 -2,3 3,-1 7,-2 8,-3 10,-20 19,-17 39,-14 5,1 6,3 8,7 2,3 11,2 13,1 7,0 33,10 33,18 27,4 22,38 22,64 0,56 8,47 -9,104 14,10 19,13 38,20l1 -193c-4,-4 -51,-34 -53,-34 -22,-11 -48,1 -71,-15 -18,-12 -23,-29 -32,-54 -11,-27 -23,-28 -27,-52 0,0 0,-1 -1,-2 0,0 0,-1 1,-3 0,-1 -1,-3 -1,-4l2 0c1,-3 2,-8 3,-9 1,-4 4,-12 7,-15 3,-2 8,-6 10,-9 0,-22 10,-23 30,-28 4,-1 6,0 10,3 2,2 10,-3 12,-4 8,-4 29,-6 37,6 40,16 29,-15 32,73 2,52 6,45 -8,95 16,14 23,22 48,30 -1,-70 -11,-138 -22,-205 -17,-6 -31,-9 -46,-16 -24,-11 -20,-10 -48,-4l0 8c-39,-5 -64,-18 -85,-53 -22,-36 -57,-54 -41,-99 1,-4 4,-12 7,-15 2,-2 8,-6 10,-8 0,-23 10,-23 29,-28 5,-2 7,-1 11,2 2,3 10,-2 12,-4 6,-3 35,-4 38,4 0,0 0,0 0,1l19 -1c22,39 12,40 25,80 15,42 8,48 10,92 19,10 30,18 55,20 -7,-37 -42,-198 -90,-206 -65,-10 -55,-17 -85,-63 -11,-16 -30,-27 -34,-40 -10,-25 -6,-53 6,-75 3,-7 8,-12 16,-11 1,0 1,0 2,-1 1,-1 3,-6 4,-8 5,-9 12,-11 22,-8 1,1 4,2 6,2 0,-1 0,-2 0,-2 1,-4 3,-6 7,-6 5,0 12,2 17,3 73,8 58,9 74,82 18,72 25,35 8,113 -7,34 21,75 32,106 13,36 19,75 31,109 12,-13 17,-26 23,-43 -7,-14 -18,-21 -27,-39 -23,-45 0,-25 -42,-89 -13,-20 -8,-22 -1,-39l0 1c1,-16 4,-33 16,-42 3,-3 7,-5 12,-6 1,0 5,-1 6,-1 3,-29 44,-39 49,-22 3,0 10,-2 12,-2 4,-1 9,-2 12,-2 22,0 51,14 51,39 0,1 0,3 0,5l1 0c0,1 0,2 0,3 0,1 0,2 0,3 0,0 0,0 0,1 0,84 45,107 -25,163 -14,11 -35,20 -44,32 -35,44 -40,60 -32,108 7,47 11,94 13,141 19,-11 26,-26 43,-36 -12,-46 -14,-29 -14,-88 1,-33 -35,-88 9,-114 4,-2 8,-3 13,-3 1,0 5,0 6,-1 7,-27 49,-32 52,-14 3,0 10,-1 12,-1 4,0 9,-1 13,0 21,3 48,21 44,45 0,4 0,8 -1,11l0 1c5,30 -8,47 -8,81 -1,83 -69,63 -111,91 -15,10 -48,34 -54,48l-4 221c25,-11 37,-16 51,-35 -17,-28 -7,-49 -3,-81 4,-35 -11,-49 -2,-82 0,0 1,1 2,1 6,-13 14,-27 26,-32 4,-2 9,-2 13,-2 1,0 5,1 7,1zm109 46c6,-20 -15,-39 -33,-45 -3,-1 -8,-1 -12,-1 -3,-1 -7,-1 -10,-1 -2,-1 -7,-1 -7,-5 3,-12 -34,-14 -42,8 -1,1 -1,1 -2,2 -2,2 -6,1 -8,1 -4,-1 -7,-1 -11,0 -12,3 -20,18 -25,31 7,5 5,9 9,25 14,-9 10,-12 26,-19l13 24 15 -12c11,-10 1,-5 20,-12l8 32c12,-7 8,-8 26,-14l10 18c34,-17 17,-11 23,-32zm-9 238c9,-20 -1,-41 -17,-49 -3,-1 -8,-2 -12,-3 -3,-1 -6,-1 -10,-2 -2,-1 -7,-2 -6,-6 4,-11 -31,-19 -43,2 0,1 -1,2 -2,2 -2,2 -6,0 -8,0 -4,-1 -7,-2 -11,-1 -14,1 -27,10 -35,21 5,4 1,7 8,25l23 -19c5,6 10,20 15,26 13,-10 17,-17 35,-22l4 34c16,-7 7,-7 25,-17l13 21c10,-6 14,-9 21,-12zm-42 232c1,-2 1,-4 2,-5 9,-20 -1,-42 -18,-49 -3,-2 -7,-3 -11,-3 -3,-1 -7,-2 -10,-3 -2,0 -7,-2 -6,-5 4,-12 -31,-19 -43,2 -1,0 -1,1 -2,1 -2,2 -6,1 -8,0 -4,-1 -7,-1 -11,-1 -14,2 -27,10 -35,21 9,7 2,8 12,27 5,-6 13,-12 22,-17l13 29c16,-9 15,-14 36,-19l0 35 29 -12c9,22 -4,23 24,15l5 -15 1 -1zm-78 283c-1,1 -2,1 -3,0 -1,-1 -1,-3 0,-4 2,-3 4,-6 6,-9l0 -1c1,-2 1,-4 2,-7 0,1 1,3 1,4 10,-16 5,-37 -8,-48 -3,-2 -8,-4 -11,-6 -3,-1 -6,-3 -9,-4 -2,-1 -6,-4 -4,-7 6,-10 -27,-26 -43,-8 -1,0 -1,1 -2,1 -3,1 -6,-1 -8,-2 -3,-2 -6,-3 -10,-4 -11,-1 -23,2 -32,7 6,-1 -4,2 -10,8 -1,1 -1,1 -1,2 -5,5 -6,13 5,24 16,-6 18,-11 32,-7l2 28 40 -13 -5 37 30 -9 7 24c14,-2 19,-3 21,-6zm-108 231c1,-1 3,-2 4,-3 18,-13 20,-37 9,-52 -2,-2 -6,-6 -9,-8 -2,-2 -5,-4 -7,-7 -2,-1 -6,-5 -3,-7 9,-8 -18,-32 -39,-20 0,1 -1,1 -2,1 -3,0 -5,-3 -7,-5 -3,-2 -6,-4 -9,-5 -13,-5 -28,-5 -40,1l-7 25c20,-2 15,-7 32,-2l-2 28 41 -2 -13 33c2,0 15,-2 15,-2l18 25 19 0zm-135 202c2,-2 5,-5 7,-7 18,-13 20,-37 9,-52 -2,-2 -6,-6 -8,-8 -3,-2 -6,-4 -8,-7 -2,-1 -6,-5 -3,-7 9,-8 -18,-32 -39,-20 0,1 -1,1 -2,1 -3,0 -5,-3 -7,-4 -3,-3 -5,-5 -9,-6 -13,-6 -30,-4 -42,2 0,1 0,2 0,3 0,0 -6,21 -6,23l32 -3 -5 30 38 -2c3,5 2,0 1,8l-10 25 31 -1 2 24 19 1zm343 -1441c-1,-1 -2,-2 -2,-3 1,-4 0,-8 1,-12 3,-21 -22,-36 -40,-39 -4,0 -8,0 -12,0 -3,1 -7,1 -10,1 -3,0 -8,0 -7,-3 0,-12 -36,-10 -41,14 -1,1 -1,1 -1,2 -2,2 -6,2 -9,2 -3,0 -7,1 -10,2 -11,5 -16,18 -19,31 7,5 9,15 16,24l15 -22c12,7 4,0 14,12 5,5 2,4 8,10 16,-12 12,-18 28,-26l12 22c0,1 1,5 1,4 0,-1 1,3 2,4 8,-7 10,-10 19,-18 1,1 2,2 3,3 7,6 10,10 20,12 10,-11 9,-12 12,-20zm-92 -250c0,-3 -1,-6 -1,-8 0,-22 -26,-34 -45,-34 -3,0 -8,1 -11,2 -3,1 -7,2 -10,2 -3,1 -7,2 -8,-2 -1,-12 -37,-4 -38,20 -1,0 -1,1 -1,2 -2,2 -6,3 -8,3 -4,1 -7,2 -10,4 -14,8 -16,35 -16,49 0,1 0,2 -1,2 2,8 2,4 16,17l12 -27c16,6 12,7 24,15 9,-11 11,-22 21,-36 5,5 16,18 23,25 6,-8 9,-15 15,-25 7,3 14,8 23,12 9,-16 6,-16 15,-21zm-283 1141c-2,-3 -11,-9 -13,-11 -3,-2 -12,-7 -16,-8 -7,0 -19,0 -22,-9 0,-3 0,-3 -4,-5 -7,-2 -20,-7 -27,-6 -6,2 -11,9 -15,14 -1,3 -15,4 -19,5 -5,0 -25,16 -28,20 -1,2 -2,3 -4,2 0,0 -1,0 -1,-1 -4,9 -8,17 -9,33 14,5 13,9 25,5l14 -10c0,-2 2,-2 4,-3l22 19 10 -33c19,6 23,16 37,27 7,-12 9,-17 22,-25 11,10 10,14 23,23 6,-20 14,-24 -4,-37 2,0 4,0 5,0zm-191 377c-3,-4 -10,-11 -12,-13 -4,-3 -13,-11 -17,-12 -9,-1 -22,-3 -23,-13 -1,-4 -1,-5 -4,-6 -8,-4 -22,-12 -30,-11 -7,0 -14,7 -19,13 -2,3 -18,2 -22,2 -6,0 -31,15 -35,20 0,0 -1,1 -2,1 1,8 7,13 13,20 14,-5 12,-7 24,-13 9,9 12,16 21,25 9,-18 6,-19 23,-28l23 34c12,-6 6,-4 13,-10 1,-1 2,-2 3,-2l8 -6c13,12 8,13 20,24 7,-7 4,-4 10,-13l6 -12zm93 -208c2,1 3,2 5,4l0 -1c-2,-1 -3,-2 -5,-3zm4 14c-3,-4 -13,-11 -15,-13 -4,-3 -14,-9 -18,-9 -9,-1 -22,-1 -25,-11 -1,-3 -1,-4 -4,-5 -8,-3 -23,-9 -31,-7 -7,1 -13,9 -16,15 -2,3 -18,5 -22,6 -5,1 -28,19 -31,24 -1,0 -1,1 -2,1 2,12 -2,9 17,25 15,-9 6,-9 24,-17l21 22 13 -33c19,7 17,16 33,29 16,-12 6,-13 26,-23l17 22c8,-7 11,-16 13,-26zm179 -387c-1,1 -2,1 -2,1 -2,0 -3,-1 -3,-3 -2,-3 -13,-9 -16,-10 -3,-2 -13,-6 -17,-5 -7,1 -19,3 -22,-6 -2,-3 -2,-3 -5,-4 -7,-1 -21,-4 -28,-2 -6,3 -10,11 -13,16 -1,3 -14,7 -18,8 -4,2 -22,20 -24,25 0,2 -2,3 -4,2 0,0 -1,0 -1,-1 -6,17 -1,14 14,28 14,-5 11,-10 24,-19 10,7 14,10 26,17l8 -33c26,7 14,15 38,25 8,-10 8,-15 17,-26 16,8 17,20 27,17 9,-17 8,-22 -1,-30zm49 -439c0,0 -1,0 -1,0 -1,0 -1,-1 -2,-1l-3 -2c1,0 2,0 3,0 -2,-3 -11,-7 -13,-8 -3,-1 -11,-5 -14,-4 -6,0 -16,2 -19,-5 -1,-2 -1,-3 -4,-3 -6,-1 -17,-4 -23,-2 -5,2 -8,9 -10,13 -1,3 -12,6 -15,7 0,0 -1,0 -2,1 -2,4 -4,5 -6,5 -16,16 -28,29 -19,56 27,7 18,4 30,-15 14,6 15,9 27,14l3 -33c19,5 18,11 34,19 15,-17 4,-5 12,-25 21,7 11,11 30,14l1 -26 -9 -5zm-21 -227c-1,0 -2,-1 -2,-2 -2,-2 -13,-2 -15,-2 -4,0 -12,0 -15,2 -5,3 -14,8 -19,3 -2,-2 -2,-2 -5,-2 -6,2 -17,4 -22,8 -4,4 -4,11 -4,16 0,3 -9,10 -11,12 -2,2 -7,15 -9,23l19 8 7 -21c15,5 14,7 25,12l6 -31c13,5 19,12 29,21l12 -27c16,7 7,9 23,13l1 -24c-15,-9 -14,-2 -20,-9zm-68 -220c-4,-1 -11,-2 -13,-2 -4,0 -12,0 -15,2 -5,3 -14,8 -19,3 -2,-2 -2,-2 -5,-1 -6,1 -18,3 -22,8 -4,3 -4,10 -4,16 0,2 -9,10 -11,12 -8,6 -21,47 5,46 21,0 3,-1 19,-21l23 11 -3 -36c19,2 20,8 37,14l4 -29c18,4 11,4 28,11 -1,-12 2,-17 -7,-26 -7,-9 -14,-1 -17,-7 0,-2 -2,-1 -3,-1l3 0zm-30 -221c0,0 -1,0 -1,0 -1,0 -1,1 -1,1 -1,8 -7,7 -13,4 -20,-7 -12,18 -26,17 -18,0 -30,55 -13,69 20,19 20,-7 24,-19 13,4 17,5 28,12l-4 -37c23,1 19,7 39,13l6 -32 27 14 -3 -30c-4,-6 -60,-14 -63,-12z"/>
   <path class="fil3" d="M3502 3873l76 187c321,-171 802,-200 1161,-74 36,13 116,40 142,56l68 -182c-49,-43 -357,-111 -460,-124 -34,-5 -157,-11 -178,-19l-7 -90c73,-11 112,-30 172,-48 0,-48 18,-81 -73,-112 -52,-19 -113,-25 -172,-25 -66,1 -187,14 -237,56 -26,21 -20,35 -20,74 20,26 131,49 170,54l-2 92c-21,10 -141,17 -175,22 -131,19 -362,75 -465,133z"/>
   <path class="fil5" d="M3387 6721c-12,-26 -45,-7 -51,-1 -12,13 -11,33 -2,48 15,27 62,31 87,13 59,-43 -3,-142 -86,-121 -68,16 -91,117 -36,162 62,51 144,19 175,-28 18,-27 46,-43 78,-114 10,-23 7,-22 34,-27 71,-13 141,-31 210,-45 509,-106 632,-50 1112,46 31,6 24,0 34,28 22,66 94,156 162,156 39,-1 71,-22 86,-41 48,-59 8,-150 -66,-151 -93,0 -104,116 -43,137 35,12 74,-5 75,-38 1,-41 -47,-66 -60,-43 23,13 54,0 46,53 -38,39 -98,19 -85,-48 9,-44 71,-66 110,-34 84,69 -14,194 -108,141 -72,-40 -61,-185 57,-197 34,-3 73,7 98,28 14,11 9,13 24,20 53,23 76,12 108,60 -32,-6 -49,-17 -87,-18 25,111 -22,191 -110,216 -92,27 -209,-10 -297,-31 -496,-119 -699,-124 -1197,-7 -92,21 -200,51 -300,30 -129,-27 -125,-121 -124,-207 -38,-6 -47,1 -80,8 9,-19 27,-32 54,-42 51,-19 36,1 66,-25 33,-28 100,-33 146,-12 96,43 73,199 -45,199 -140,0 -100,-206 13,-162 42,17 72,85 18,103 -30,10 -58,-1 -63,-24 -8,-42 31,-26 47,-32zm1089 -190l5 31c-15,-2 -28,-2 -37,-9l-63 -6c-18,2 -27,1 -44,0 -1,0 -21,-2 -21,-2 -12,-4 -6,-1 -15,-9l-7 2c-22,14 -78,6 -107,6l3 -30 -6 0 0 29 -86 6c-18,-2 -45,8 -61,0 -6,-15 -4,-30 -4,-50l-8 10c8,12 5,26 7,44 -14,7 -19,7 -35,9l2 -15c-8,16 0,1 -8,8 -6,10 7,5 -16,10 -9,2 -18,3 -27,5l-58 7c-6,-4 -5,0 -7,-6 -5,13 -1,9 -14,14 -2,1 -19,3 -22,4 -2,-1 -6,0 -10,-8l-3 3c-7,8 -3,6 -13,10 -3,1 -10,2 -12,3 -7,1 -16,3 -24,4l-67 16 -45 8 4 -20 -7 7 -1 16 -45 10 -4 -13 -3 10c-10,6 -15,5 -30,8 -13,3 -18,4 -31,9 -18,11 -24,60 -69,106l1 -34c-9,-11 -6,-10 -5,-28 -19,-68 -105,-103 -187,-74 -26,9 -31,19 -45,26 -23,12 -57,7 -96,44 -10,10 -25,24 -20,40 13,3 54,-14 81,-14 7,66 -6,87 30,143 76,119 308,60 411,36 207,-49 386,-77 606,-86 124,-4 323,34 450,61 129,28 331,93 434,64 91,-25 145,-100 128,-216 35,5 61,20 87,23 9,-32 -40,-61 -67,-73 -17,-8 -40,-11 -54,-18 -13,-8 -20,-19 -38,-29 -34,-19 -79,-24 -121,-10 -40,13 -51,31 -73,63 -4,26 3,11 -10,17 7,13 7,54 9,75 -15,-16 -29,-32 -42,-57 -22,-44 -10,-55 -32,-64 -20,1 -42,-4 -60,-11l-8 -20 1 20c-13,-1 -25,-3 -37,-6 -17,-5 -13,-3 -22,-11 -8,5 0,4 -13,4 0,0 -12,-3 -12,-3 -10,-2 -13,-4 -19,-8 -26,1 -43,-9 -66,-12l-51 -8 4 -29 -7 15 -5 11 -41 -7c2,-12 4,-18 5,-30 0,-5 0,-14 1,-18 2,-12 0,-4 5,-10l-11 -12c-1,19 2,39 0,62 -5,3 -4,5 -15,4 -1,0 -12,-2 -15,-3 -12,-2 -23,-4 -34,-6l-50 -7c4,-9 8,-20 9,-33 1,-7 0,-13 0,-19 2,-16 -7,4 5,-14l-7 -8 -1 54c-16,-9 -2,4 -14,-11z"/>
   <path class="fil6" d="M4256 6529c-26,2 -43,-1 -50,-24 -6,-21 1,-43 18,-50 24,-11 42,2 48,19 10,31 -5,41 -16,55zm-66 -15l-3 30c29,0 85,8 107,-6l-53 -239c-13,18 -46,181 -51,215z"/>
   <polygon class="fil7" points="4100,6516 4098,6549 4184,6543 4184,6514 4135,6343 "/>
   <path class="fil0" d="M5276 6188c-28,-36 -32,-24 -80,-37 10,59 -4,43 -10,95 -5,44 -20,48 -32,77 9,13 5,14 19,24 22,-41 73,-101 103,-159z"/>
   <path class="fil7" d="M4301 6536c9,8 3,5 15,9 0,0 20,2 21,2 17,1 26,2 44,0l0 -38 -35 -166 -45 193z"/>
   <path class="fil0" d="M4256 6529c11,-14 26,-24 16,-55 -6,-17 -24,-30 -48,-19 -17,7 -24,29 -18,50 7,23 24,26 50,24z"/>
   <path class="fil2" d="M4260 6669c31,1 50,-2 51,-35 1,-34 -18,-38 -51,-37l0 72z"/>
   <path class="fil7" d="M4815 6602c-9,10 2,-11 -5,8 -2,5 -1,4 -2,9 9,8 5,6 22,11 12,3 24,5 37,6l-1 -20c-10,-34 -30,-57 -50,-72l-1 58z"/>
   <path class="fil8" d="M4381 6509l0 38 63 6 7 -54 -7 -9c4,25 5,28 -3,52 -14,-24 -29,-58 -54,-68l1 44 -7 -9z"/>
   <path class="fil8" d="M4698 6581l0 19c23,3 40,13 66,12l4 -22 -5 17 -23 -45c-9,-14 -20,-25 -34,-34l1 54c-8,3 -1,4 -9,-1z"/>
   <path class="fil7" d="M3620 6625l4 13 45 -10 1 -16 -1 -61c-23,17 -42,46 -49,74z"/>
   <path class="fil8" d="M4534 6555l0 14c11,2 22,4 34,6 3,1 14,3 15,3 11,1 10,-1 15,-4 -6,-6 -3,-2 -8,-10 -4,-7 -2,-5 -7,-13 -13,-29 -21,-34 -44,-54 -1,21 12,48 -5,58z"/>
   <path class="fil9" d="M2901 5194l5 5c0,1 4,4 4,5 5,5 8,8 12,13 7,10 10,17 15,32 11,28 12,46 31,62l6 -74c-24,-12 -48,-32 -73,-43z"/>
   <path class="fil8" d="M4874 6636c18,7 40,12 60,11 -14,-30 -24,-66 -56,-81 3,31 6,44 -4,70z"/>
   <path class="fil7" d="M4651 6563l-4 29 51 8 0 -19c-8,-26 -31,-52 -49,-63l2 45z"/>
   <path class="fil9" d="M2976 5567c-2,-12 -2,-23 -4,-36 0,-5 -1,-13 -2,-18 -4,-24 -3,-17 -65,-43l34 52c12,22 17,33 37,45z"/>
   <path class="fil8" d="M4037 6549c16,8 43,-2 61,0l2 -33 -6 21 -4 -57c-32,21 -29,38 -53,69z"/>
   <path class="fil8" d="M3719 6608l-1 9 67 -16 -1 -7c-14,-14 -9,-36 -8,-57l-33 33c-21,30 -6,33 -24,38z"/>
   <path class="fil9" d="M2988 5136l16 -66 -41 -38c-7,-5 -3,-2 -10,-7 18,50 23,97 35,111z"/>
   <path class="fil10" d="M4768 6590l-4 22c6,4 9,6 19,8 0,0 12,3 12,3 13,0 5,1 13,-4 1,-5 0,-4 2,-9 7,-19 -4,2 5,-8 -10,-8 -9,-12 -17,-25 -11,-15 -10,-16 -29,-24l-1 37z"/>
   <path class="fil7" d="M3784 6594l1 7c8,-1 17,-3 24,-4 2,-1 9,-2 12,-3 10,-4 6,-2 13,-10l-2 -58c-17,18 -41,32 -48,68z"/>
   <path class="fil7" d="M4534 6569l0 -14c-5,-22 -17,-45 -36,-59 -12,18 -3,-2 -5,14 0,6 1,12 0,19 -1,13 -5,24 -9,33l50 7z"/>
   <path class="fil8" d="M3556 6652c13,-5 18,-6 31,-9 15,-3 20,-2 30,-8 -14,-1 -11,-7 -12,-24 -1,-11 2,-26 2,-38 -29,27 -37,32 -51,79z"/>
   <path class="fil7" d="M3947 6563l1 7c9,-2 18,-3 27,-5 23,-5 10,0 16,-10l-2 -59c-17,10 -37,38 -42,67z"/>
   <path class="fil8" d="M3890 6577l58 -7 -1 -7c-18,-1 -5,-45 -4,-58 -27,19 -38,35 -53,72z"/>
   <path class="fil6" d="M3677 6605l-4 20 45 -8 1 -9 -2 -55c-15,11 -32,26 -40,52z"/>
   <path class="fil11" d="M4644 6578c-6,-24 -18,-43 -35,-54 -5,6 -3,-2 -5,10 -1,4 -1,13 -1,18 -1,12 -3,18 -5,30l41 7 5 -11z"/>
   <path class="fil6" d="M3837 6581c4,8 8,7 10,8 3,-1 20,-3 22,-4 13,-5 9,-1 14,-14l2 -51c-16,10 -15,10 -27,25 -12,16 -11,22 -21,36z"/>
   <path class="fil12" d="M3923 5991l39 0c15,-2 44,-3 59,3 24,11 6,1 15,14l-89 -12c-10,37 -46,3 -46,2l22 -7zm278 -124c42,2 32,14 36,56 3,32 10,59 -29,57 -8,6 6,3 -16,6l-50 -9c-12,-23 -17,-72 -7,-101 16,-9 43,-9 66,-9zm97 -1c36,-3 44,-9 48,29 3,27 6,50 4,77 -17,12 -24,14 -52,16l-41 -1c-13,-27 -22,-81 -10,-116l51 -5zm71 -130l34 0 6 124 -79 -1c-8,-31 -14,-94 2,-122l37 -1zm-119 1c24,1 50,1 67,10 2,21 2,50 2,72 -1,32 -11,39 -41,36 -16,9 -56,6 -72,-2 -12,-26 -14,-81 -3,-111l47 -5zm71 -101c13,8 7,-2 12,17 2,6 3,20 3,26 1,26 1,31 -8,50 -15,5 -59,5 -72,-3 -15,-13 -13,-63 -5,-85 16,-9 55,-12 70,-5zm30 90c-9,-16 -13,-73 -7,-92l49 -2 9 98 -51 -4zm-265 -1c-7,5 2,1 -10,4 -56,11 -66,-18 -55,-73 5,-20 21,-19 43,-19 43,1 76,-16 73,32l8 -12c10,-17 5,-21 24,-24 16,-3 45,-1 57,3 18,13 17,56 15,72 -4,20 -9,17 -11,17 -14,12 -61,8 -79,0 -3,-18 2,-67 -6,-36 -2,43 -12,45 -59,36zm398 -82l21 -2c12,37 19,53 14,101l-54 -6 -56 -6 -8 -97c23,1 67,-1 83,10zm-30 -106c16,-1 8,-3 24,1 0,0 11,7 12,8 9,32 16,49 10,86l-39 -2 -61 -5 -8 -95c19,1 50,-2 62,7zm-145 -5l77 -5 6 99 -80 -2 -3 -92zm-68 -1l52 0c13,21 15,65 8,94l-60 1 -38 -2 -4 -92 42 -1zm-213 -4c-22,2 -49,3 -69,-4 -7,-19 -4,-57 3,-74l71 -4c30,-1 44,-9 49,18 12,63 2,63 -24,64 -9,1 -20,0 -30,0zm92 -87l24 1 29 -2 48 1c33,102 -10,85 -48,86l-47 0 -34 -2 -3 -78 31 -6zm332 -1l-1 7c24,-2 26,4 30,27 4,18 5,32 3,50 -19,6 -22,3 -42,2l-58 -14c-3,7 -1,3 -4,10 -20,0 -31,2 -45,-5 -3,-1 -4,4 -7,-5 0,-1 -2,-1 -3,-2l1 15 -88 -1 -5 -87 37 -3c40,-3 67,-13 55,61 16,-19 2,-33 10,-63l39 -1c4,21 3,51 13,68l-5 -72 70 13zm-365 -55l33 -1 0 47 0 10 -73 -3 3 -48 37 -5zm-78 55l-44 0 1 -43c10,-2 28,-4 43,-6l34 -2c0,51 12,50 -34,51zm164 -61c5,0 15,-1 19,-1 11,1 6,1 13,2 1,1 6,3 7,3l-1 48 -44 3 -40 -3 -1 -47 47 -5zm192 -13c7,15 8,40 10,60l-48 0c-9,-17 -8,-36 -10,-56l48 -4zm-88 7l31 -2c6,13 5,12 7,29 2,11 2,11 0,24l-38 3 -60 3c0,-17 1,-36 -5,-47 18,-11 43,-9 65,-10zm-302 -26c11,12 -4,6 20,9 3,0 17,-2 20,-2 14,-2 24,-3 38,-4 25,-2 51,-4 76,-7l136 -12 98 -7 4 36c-28,2 -62,8 -87,2l-35 6c-11,1 -20,2 -31,3 -23,1 -49,4 -69,0 -21,12 -133,6 -178,18l-1 8c-1,2 -2,2 -5,9 -3,8 -2,5 -3,15 0,14 4,12 4,29 -24,14 -12,66 -4,84l32 1c45,1 70,-16 61,42 11,-14 8,-21 6,-41 20,-2 119,-15 123,3 9,5 7,-13 15,44 2,19 5,25 -3,44l-35 -1c-18,11 -72,5 -94,0l-4 -47 -1 20 -5 30 -104 1c8,10 -12,9 13,7 55,2 53,-10 53,48 1,54 -4,41 -53,42l-20 4 -4 4 28 -1 44 -1c8,1 19,1 27,3 21,5 15,4 18,15l7 8c0,-1 1,-4 2,-3 8,16 -16,-18 42,-22 19,0 35,-2 49,5 16,-1 25,4 36,10l3 104 -50 9 -43 -3 -27 -3c-4,-7 -7,-14 -9,-24l-9 -34c4,20 4,33 0,54l-46 8 -44 -3c-15,0 -30,-2 -38,-2l-4 5 29 4c20,0 36,-4 52,3 16,22 11,70 6,96 -15,15 -29,13 -52,14 -29,-1 -40,1 -45,-28 -3,-24 2,-50 -2,-72 -5,16 -6,28 -5,48 2,30 6,23 -9,41l25 26c-15,1 -22,2 -36,7 -18,5 -21,10 -36,-3 -6,6 -8,8 -16,13 16,-4 47,-5 69,-2l3 9c1,1 -2,3 12,2 40,-4 84,2 112,-5l18 -6c-12,-5 -4,1 -12,-12l-38 -10 33 -7c-1,-1 -2,-2 -3,-3 -1,-1 -2,-3 -2,-4 -9,-15 -7,-48 -7,-65 -1,-47 7,-38 52,-39 18,-1 35,0 48,6 8,23 7,69 5,96 -22,14 -19,13 -53,14l-35 -1c5,4 -5,2 15,8 21,4 37,2 59,2 28,0 36,-5 44,14 1,-5 -3,-8 -9,-18l111 0c9,5 61,12 71,19l-21 -15c-1,-1 -3,-3 -4,-5 23,0 53,2 65,-3 -17,-18 -17,-87 -15,-114l36 -3 23 1 12 98 4 1 -10 -98 71 0 54 5c-1,-22 5,-30 2,-57 -3,-19 -9,-38 -14,-55 -1,18 12,49 12,72 1,43 -18,31 -53,29l-40 -2 -30 -1c-8,-17 -10,-94 -10,-121l37 4 43 5c14,1 25,2 34,2 -3,-45 4,-77 -19,-108 0,-33 4,-73 -15,-95 0,-31 -1,-57 -8,-84 -8,-30 0,-48 -13,-72l3 44c-6,4 -2,2 -11,5 -1,0 -8,0 -9,0l-29 -11 -42 -9 -5 -52c17,3 35,6 48,16l1 -7c-44,-17 -53,-1 -54,-51l16 -2c-28,-13 -60,-6 -97,-2 -34,4 -71,5 -106,9 -46,6 -170,21 -209,16z"/>
   <path class="fil13" d="M4052 5989c-32,-8 -11,0 -15,5 8,13 0,7 12,12l-18 6c-28,7 -72,1 -112,5 -14,1 -11,-1 -12,-2l-3 -9c-22,-3 -53,-2 -69,2 -12,-1 -15,2 -23,0l-37 -7 -10 30c-2,11 -1,9 0,13 15,8 25,3 53,16 23,11 29,12 58,0 55,-22 58,-5 115,-6 36,-1 81,-16 114,-23 16,-4 44,-5 58,-10 27,-9 4,-13 37,-15 1,0 2,0 3,0 27,-9 27,-4 46,4 21,10 24,5 39,10 6,8 1,11 0,18 -1,11 -1,16 8,27 13,-2 19,-2 24,-19 10,-12 19,-11 28,-13 -22,-14 -20,-3 -50,1 11,-10 21,-11 29,-13l1 -15c-10,-7 -62,-14 -71,-19l-111 0c6,10 10,13 9,18 -8,-19 -16,-14 -44,-14 -22,0 -38,2 -59,-2z"/>
   <path class="fil14" d="M4692 5890l-24 -5c-6,8 -21,8 -33,10l0 -86c23,10 5,2 23,0 -9,-16 2,-1 -8,-11 -1,-1 -8,-7 -9,-7 -25,-16 -56,-16 -84,-16 6,101 24,124 24,149 22,-5 37,-10 56,-13 25,-5 39,-4 55,-21z"/>
   <path class="fil15" d="M4436 6044c-24,-10 -80,-9 -95,-29 18,-13 104,-4 121,5 -3,13 0,4 -17,16l-6 5c-1,1 -3,2 -3,3zm53 -70l-53 8 -8 -16 -4 -1 0 20 -35 2 -21 -4c-12,5 -42,3 -65,3 1,2 3,4 4,5l21 15 -1 15c-8,2 -18,3 -29,13 30,-4 28,-15 50,-1 -9,2 -18,1 -28,13 44,-10 97,23 116,-2 18,-3 32,-10 56,-12 24,-2 44,2 64,-11l-76 4c-6,11 -8,-9 -14,-19 -21,4 -56,-6 -78,-11 23,-3 39,-1 57,-3 29,-3 37,-8 31,12 24,-7 70,1 76,5 2,-1 3,-3 4,-2l30 -15c-6,-13 6,-7 -17,-12 11,-11 7,-16 2,-30 -8,-25 -5,-39 -17,-62l11 79 -76 7z"/>
   <path class="fil16" d="M4325 5494l0 15c1,1 3,1 3,2 3,9 4,4 7,5 14,7 25,5 45,5 3,-7 1,-3 4,-10l58 14 -1 -76c4,-3 0,-2 10,-3l1 -7 -70 -13 5 72c-10,-17 -9,-47 -13,-68l-39 1c-8,30 6,44 -10,63z"/>
   <path class="fil17" d="M3942 5730l20 -4 0 -90c-25,2 -5,3 -13,-7l104 -1 -63 -5 0 -89 -32 -1c-4,0 -8,-3 -15,2 -1,20 -5,31 -5,53 -1,55 10,31 -4,59 -17,34 -6,55 -6,80 6,5 9,2 14,3z"/>
   <path class="fil18" d="M4278 5855c30,3 40,-4 41,-36 0,-22 0,-51 -2,-72 -17,-9 -43,-9 -67,-10l0 115 28 3z"/>
   <polygon class="fil19" points="4312,5624 4392,5626 4386,5527 4309,5532 "/>
   <polygon class="fil20" points="4428,5966 4436,5982 4489,5974 4489,5868 4418,5868 "/>
   <path class="fil21" d="M4208 5980c-18,-7 -12,0 -13,-22 -1,-8 0,-24 0,-34 0,-21 -3,-43 6,-57 -23,0 -50,0 -66,9 -10,29 -5,78 7,101l50 9c22,-3 8,0 16,-6z"/>
   <path class="fil18" d="M4489 5974l76 -7 -11 -79c2,-25 5,-9 -11,-15l-54 -5 0 106z"/>
   <path class="fil22" d="M4086 5725c47,9 57,7 59,-36l-8 -20c3,-48 -30,-31 -73,-32l0 85 22 3z"/>
   <path class="fil23" d="M3959 5976c23,-1 37,1 52,-14 5,-26 10,-74 -6,-96 -16,-7 -32,-3 -52,-3 0,33 -8,91 6,113z"/>
   <path class="fil24" d="M4051 5576l7 22 1 -20 4 47c22,5 76,11 94,0l-37 -4 0 -81c24,0 44,-9 60,-2 -4,-18 -103,-5 -123,-3 2,20 5,27 -6,41z"/>
   <path class="fil18" d="M4157 5625l35 1c8,-19 5,-25 3,-44 -8,-57 -6,-39 -15,-44 -16,-7 -36,2 -60,2l0 81 37 4z"/>
   <path class="fil24" d="M4278 5855l-28 -3 0 -115 -47 5c-11,30 -9,85 3,111 16,8 56,11 72,2z"/>
   <path class="fil25" d="M4257 5987l41 1 0 -122 -51 5c-12,35 -3,89 10,116z"/>
   <path class="fil20" d="M4037 5994c4,-5 -17,-13 15,-5 -20,-6 -10,-4 -15,-8l35 1 0 -116c-45,1 -53,-8 -52,39 0,17 -2,50 7,65 0,1 1,3 2,4 1,1 2,2 3,3l-33 7 38 10z"/>
   <path class="fil25" d="M4465 5736l0 -90 19 -3c-16,-11 -60,-9 -83,-10l8 97 56 6z"/>
   <path class="fil26" d="M3938 5734c-14,3 -13,-11 -21,42 -4,25 -3,42 -3,66l5 0c0,30 -2,3 9,12 8,0 23,2 38,2l0 -123 -28 1z"/>
   <path class="fil27" d="M4072 5982c34,-1 31,0 53,-14 2,-27 3,-73 -5,-96 -13,-6 -30,-7 -48,-6l0 116z"/>
   <path class="fil27" d="M4298 5988c28,-2 35,-4 52,-16 2,-27 -1,-50 -4,-77 -4,-38 -12,-32 -48,-29l0 122z"/>
   <path class="fil18" d="M4053 5628l5 -30 -7 -22c9,-58 -16,-41 -61,-42l0 89 63 5z"/>
   <path class="fil18" d="M4241 5626l60 -1c7,-29 5,-73 -8,-94l-52 0 0 95z"/>
   <path class="fil25" d="M3962 5449c-7,17 -10,55 -3,74 20,7 47,6 69,4 0,-25 -4,-64 5,-82l-71 4z"/>
   <path class="fil28" d="M4101 5858l43 3c0,-22 0,-44 0,-67 0,-10 -1,-24 -1,-34 1,-22 -4,-15 12,-22 -14,-7 -30,-5 -49,-5 -13,30 -5,90 -5,125z"/>
   <path class="fil29" d="M4144 5861l50 -9 -3 -104c-11,-6 -20,-11 -36,-10 -16,7 -11,0 -12,22 0,10 1,24 1,34 0,23 0,45 0,67z"/>
   <path class="fil29" d="M4490 5862c35,2 54,14 53,-29 0,-23 -13,-54 -12,-72 6,-26 3,-9 -7,-12 -9,0 -20,-1 -34,-2l0 115z"/>
   <path class="fil29" d="M4010 5859l46 -8c4,-21 4,-34 0,-54 -5,-16 -4,-30 -1,-47 -3,-11 3,-10 -18,-15 -8,-2 -19,-2 -27,-3l0 127z"/>
   <path class="fil25" d="M4409 5860l-40 -4 0 -120 -37 1c-16,28 -10,91 -2,122l79 1z"/>
   <polygon class="fil28" points="3966,5856 4010,5859 4010,5732 3966,5733 "/>
   <path class="fil30" d="M3975 5346c-13,4 -15,3 -17,16 -2,5 -1,9 1,14 5,18 -2,3 8,12 45,-12 157,-6 178,-18l-16 -3 0 -25c-25,3 -51,5 -76,7 -14,1 -24,2 -38,4 -3,0 -17,2 -20,2 -24,-3 -9,3 -20,-9z"/>
   <path class="fil19" d="M4351 5726l51 4 -9 -98 -49 2c-6,19 -2,76 7,92z"/>
   <path class="fil28" d="M4450 5860l40 2 0 -115 -43 -5c0,33 -5,89 3,118z"/>
   <path class="fil27" d="M4465 5736l54 6c5,-48 -2,-64 -14,-101l-21 2 -19 3 0 90z"/>
   <path class="fil18" d="M4270 5433l0 84 56 7 -1 -15 0 -15c12,-74 -15,-64 -55,-61z"/>
   <path class="fil25" d="M4461 5630c-13,-9 15,-4 -14,-8 0,-21 -8,-76 7,-85 -12,-9 -43,-6 -62,-7l8 95 61 5z"/>
   <path class="fil22" d="M4425 5376l-1 7c-12,11 -7,31 -1,45l29 11c1,0 8,0 9,0 9,-3 5,-1 11,-5l-3 -44c7,-1 5,0 11,-4 0,-23 1,-40 -19,-44 -26,-7 -6,-2 -14,1l-24 5 2 28z"/>
   <path class="fil29" d="M4173 5526c38,-1 81,16 48,-86l-48 -1 0 87z"/>
   <path class="fil27" d="M4461 5630l39 2c6,-37 -1,-54 -10,-86 -1,-1 -12,-8 -12,-8 -16,-4 -8,-2 -24,-1 -15,9 -7,64 -7,85 29,4 1,-1 14,8z"/>
   <path class="fil23" d="M3962 5726c49,-1 54,12 53,-42 0,-58 2,-46 -53,-48l0 90z"/>
   <path class="fil19" d="M4129 5342l0 25 16 3c20,4 46,1 69,0 11,-1 20,-2 31,-3l35 -6 -18 -3 3 -28 -136 12z"/>
   <path class="fil30" d="M4055 5750c-3,17 -4,31 1,47l9 34c2,10 5,17 9,24l27 3c0,-35 -8,-95 5,-125 -58,4 -34,38 -42,22 -1,-1 -2,2 -2,3l-7 -8z"/>
   <path class="fil29" d="M4028 5527c10,0 21,1 30,0 26,-1 36,-1 24,-64 -5,-27 -19,-19 -49,-18 -9,18 -5,57 -5,82z"/>
   <path class="fil22" d="M4328 5729c9,-19 9,-24 8,-50 0,-6 -1,-20 -3,-26 -5,-19 1,-9 -12,-17l-37 5 0 83c20,4 23,7 44,5z"/>
   <path class="fil29" d="M4208 5980c39,2 32,-25 29,-57 -4,-42 6,-54 -36,-56 -9,14 -6,36 -6,57 0,10 -1,26 0,34 1,22 -5,15 13,22z"/>
   <polygon class="fil27" points="4409,5860 4403,5736 4369,5736 4369,5856 "/>
   <path class="fil18" d="M4230 5725c2,0 7,3 11,-17 2,-16 3,-59 -15,-72l-38 5 -1 82 43 2z"/>
   <path class="fil24" d="M4137 5669l8 20c8,-31 3,18 6,36 18,8 65,12 79,0l-43 -2 1 -82 38 -5c-12,-4 -41,-6 -57,-3 -19,3 -14,7 -24,24l-8 12z"/>
   <path class="fil24" d="M3912 5876c4,22 -1,48 2,72 5,29 16,27 45,28 -14,-22 -6,-80 -6,-113l-29 -4c-17,5 -13,-14 -12,17z"/>
   <path class="fil31" d="M4692 5890l7 -6c5,-17 -15,-50 -25,-62l-16 -13c-18,2 0,10 -23,0l0 86c12,-2 27,-2 33,-10l24 5z"/>
   <path class="fil14" d="M4450 5860c-8,-29 -3,-85 -3,-118l-37 -4c0,27 2,104 10,121l30 1z"/>
   <path class="fil32" d="M4086 5725l-22 -3 0 -85c-22,0 -38,-1 -43,19 -11,55 -1,84 55,73 12,-3 3,1 10,-4z"/>
   <path class="fil21" d="M4368 5983l21 4 0 -121 -36 3c-2,27 -2,96 15,114z"/>
   <path class="fil28" d="M4126 5526l47 0 0 -87 -29 2c-11,7 16,5 -18,8l0 77z"/>
   <path class="fil24" d="M4328 5729c-21,2 -24,-1 -44,-5l0 -83 37 -5c-15,-7 -54,-4 -70,5 -8,22 -10,72 5,85 13,8 57,8 72,3z"/>
   <polygon class="fil24" points="4241,5626 4241,5531 4199,5532 4203,5624 "/>
   <polygon class="fil27" points="4389,5987 4424,5985 4424,5965 4412,5867 4389,5866 "/>
   <path class="fil33" d="M4265 5330l-3 28 18 3c25,6 59,0 87,-2l-4 -36 -98 7z"/>
   <path class="fil16" d="M4212 5382c6,11 5,30 5,47l60 -3 0 -54c-22,1 -47,-1 -65,10z"/>
   <polygon class="fil24" points="4326,5524 4270,5517 4270,5433 4233,5436 4238,5523 "/>
   <path class="fil29" d="M4442 5525c20,1 23,4 42,-2 2,-18 1,-32 -3,-50 -4,-23 -6,-29 -30,-27 -10,1 -6,0 -10,3l1 76z"/>
   <path class="fil14" d="M4126 5526l0 -77c34,-3 7,-1 18,-8l-24 -1 -31 6 3 78 34 2z"/>
   <path class="fil19" d="M4327 5425l48 0c-2,-20 -3,-45 -10,-60l-48 4c2,20 1,39 10,56z"/>
   <path class="fil34" d="M4556 6021c7,-5 7,20 5,-15l-9 3c-6,-4 -52,-12 -76,-5 6,-20 -2,-15 -31,-12 -18,2 -34,0 -57,3 22,5 57,15 78,11 6,10 8,30 14,19l76 -4z"/>
   <path class="fil35" d="M4436 6044c0,-1 2,-2 3,-3l6 -5c17,-12 14,-3 17,-16 -17,-9 -103,-18 -121,-5 15,20 71,19 95,29z"/>
   <path class="fil24" d="M4425 5376l-2 -28 24 -5c-7,-6 -5,-6 -15,-11 -3,-2 -11,-4 -15,-5 -13,-5 -16,-8 -30,-4l-16 2c1,50 10,34 54,51z"/>
   <path class="fil36" d="M4288 6038c1,-7 6,-10 0,-18 -15,-5 -18,0 -39,-10 -19,-8 -19,-13 -46,-4l16 12c6,4 7,4 14,7 -18,13 -19,-3 -38,17 25,12 59,-5 93,-4z"/>
   <path class="fil27" d="M4167 5433l44 -3 1 -48c-1,0 -6,-2 -7,-3 -7,-1 -2,-1 -13,-2 -4,0 -14,1 -19,1 -9,20 -6,32 -6,55z"/>
   <polygon class="fil21" points="4120,5440 4120,5430 4085,5430 4087,5384 4050,5389 4047,5437 "/>
   <path class="fil21" d="M4167 5433c0,-23 -3,-35 6,-55l-47 5 1 47 40 3z"/>
   <path class="fil20" d="M4423 5428c-6,-14 -11,-34 1,-45 -13,-10 -31,-13 -48,-16l5 52 42 9z"/>
   <path class="fil33" d="M4277 5426l38 -3c2,-13 2,-13 0,-24 -2,-17 -1,-16 -7,-29l-31 2 0 54z"/>
   <path class="fil37" d="M3966 5396l-1 43 44 0 0 -49c-15,2 -33,4 -43,6z"/>
   <path class="fil27" d="M4009 5390l0 49c46,-1 34,0 34,-51l-34 2z"/>
   <path class="fil13" d="M3851 5995c15,13 18,8 36,3 14,-5 21,-6 36,-7l-25 -26c-17,1 -24,9 -45,14l-2 16z"/>
   <polygon class="fil29" points="4120,5430 4120,5383 4087,5384 4085,5430 "/>
   <path class="fil34" d="M3923 5991l-22 7c0,1 36,35 46,-2l89 12c-9,-13 9,-3 -15,-14 -15,-6 -44,-5 -59,-3l-39 0z"/>
   <path class="fil11" d="M4444 6553c9,7 22,7 37,9l-5 -31c-6,-18 -9,-23 -25,-32l-7 54z"/>
   <path class="fil10" d="M3999 6547l-2 15c16,-2 21,-2 35,-9 -2,-18 1,-32 -7,-44 -13,8 -21,20 -26,38z"/>
   <path class="fil38" d="M2988 5525l1 28 36 -40c0,0 2,-1 3,-2l-40 14z"/>
   <path class="fil39" d="M4198 5095c26,-13 20,-18 51,-11 26,6 35,3 54,18l8 -30c10,14 14,34 16,51 -33,0 -103,-16 -129,-28zm105 0c-21,-9 -46,-11 -66,-19 24,-30 65,-41 66,19zm38 -124c1,1 2,2 2,4l3 8c1,2 0,14 0,14 -4,27 -31,53 -59,53 -19,-20 -22,-29 -16,-63l-7 -6c-1,-2 -3,2 -4,2l-5 -1c0,0 7,10 -24,3 -16,-5 -14,-5 -21,6 17,9 15,11 15,32l-19 15c0,28 -21,44 -39,54 -40,20 -56,5 -84,15l71 0c6,11 23,36 14,57 -8,18 3,7 -14,12 8,9 13,15 29,19l-4 9c23,-15 42,-28 66,-43 18,-11 23,-6 39,-19 17,-14 10,-16 42,-14 15,29 27,75 -14,74 -21,0 -17,-3 -17,-15 -6,4 -14,10 -22,16l-30 17c40,2 82,26 102,-14 1,1 3,1 3,3l13 12c-9,-15 -1,-19 -1,-41 0,-18 -5,-28 -8,-44 -6,-33 3,-70 23,-85 1,35 -15,44 0,77 -5,-42 2,-61 9,-96 -6,-4 -15,-12 -22,-17 -13,-11 -17,-10 -7,-27 5,-13 4,-9 14,-15 -21,-1 -8,4 -12,-7l-16 5z"/>
   <path class="fil40" d="M4299 4879c-8,-8 -2,-17 -1,-30 -7,-4 -12,-4 -15,-5 -2,18 -5,32 3,50 -34,9 -46,-15 -56,-40 -46,17 -58,12 -75,24 14,12 22,9 39,27 16,15 20,21 44,23 -27,4 -23,-4 -45,-7 7,20 1,11 13,21l-19 7c16,13 2,-2 24,9 -13,7 -15,9 -17,24 18,-9 24,-16 50,-17l-13 20c31,7 24,-3 24,-3l5 1c1,0 3,-4 4,-2l7 6c15,-13 11,-12 22,-13 5,-1 2,8 7,-2 15,-30 -14,13 3,-8l16 1 -17 -10c-16,-11 -12,-9 -11,-40 48,52 47,13 69,42 21,-13 40,-16 54,-31 -8,0 -6,2 -6,-5 -8,6 -12,9 -25,14 6,-9 10,-13 16,-26l-10 -8 -3 21c-8,-5 -8,-4 -16,-11l7 -14c8,-22 -8,-32 29,-30 -19,-13 -13,5 -12,-22 -16,1 -8,3 -18,1 -16,-3 7,-1 -14,-6 -8,21 -12,34 -23,49 -18,1 3,1 -19,-2 -25,-4 -10,6 -21,-8z"/>
   <path class="fil10" d="M4154 5176c17,-5 6,6 14,-12 9,-21 -8,-46 -14,-57l-71 0c-34,6 -112,94 -146,115 -29,16 -44,5 -75,11 11,19 10,14 38,18 77,12 17,30 80,-15 36,-26 62,-22 101,-70l73 10z"/>
   <path class="fil11" d="M4179 5204c-25,11 -85,23 -97,48 17,8 70,10 88,-3 45,-34 33,-12 73,-29l30 -17c8,-6 16,-12 22,-16 0,12 -4,15 17,15 41,1 29,-45 14,-74 -32,-2 -25,0 -42,14 -16,13 -21,8 -39,19 -24,15 -43,28 -66,43z"/>
   <path class="fil10" d="M4206 5038l19 -15c0,-21 2,-23 -15,-32l-50 27c0,-44 50,-111 -10,-101 -9,18 -2,37 -12,60 -9,22 -23,35 -9,60 18,23 48,10 77,1z"/>
   <path class="fil10" d="M4271 4987c-6,34 -3,43 16,63 28,0 55,-26 59,-53 0,0 1,-12 0,-14l-3 -8c0,-2 -1,-3 -2,-4l-22 -6 -16 -1c-17,21 12,-22 -3,8 -5,10 -2,1 -7,2 -11,1 -7,0 -22,13z"/>
   <path class="fil10" d="M4361 5221c16,13 32,1 41,-9 -10,-13 -4,-10 -18,-18 -13,-19 -9,-41 -9,-66 -15,-33 1,-42 0,-77 -20,15 -29,52 -23,85 3,16 8,26 8,44 0,22 -8,26 1,41z"/>
   <path class="fil7" d="M4198 5095c26,12 96,28 129,28 -2,-17 -6,-37 -16,-51l-8 30c-19,-15 -28,-12 -54,-18 -31,-7 -25,-2 -51,11z"/>
   <path class="fil41" d="M4369 4973c-10,6 -9,2 -14,15 8,17 15,20 32,31 9,6 5,6 16,8 -2,-20 -6,-17 -18,-28l33 0c-7,-18 -7,-12 -18,-25l41 0 -32 -25 -40 24z"/>
   <path class="fil41" d="M4283 4844c3,1 8,1 15,5 -1,13 -7,22 1,30 13,-20 2,-21 22,-21 0,0 17,13 20,-28 -19,-15 -17,1 -23,-22 0,0 0,-1 -1,-2 -24,6 -36,-5 -44,28l10 10z"/>
   <path class="fil41" d="M4377 4897l12 4 10 8c1,-1 3,-3 3,-3 5,-1 1,-1 6,0 3,5 7,-4 0,15 0,7 -2,5 6,5 18,-9 30,-9 34,-29 -9,-20 -21,-15 -42,-30 -37,-2 -21,8 -29,30z"/>
   <path class="fil7" d="M4319 4965l22 6 16 -5 3 -9c-22,-29 -21,10 -69,-42 -1,31 -5,29 11,40l17 10z"/>
   <path class="fil8" d="M4384 5194c7,-4 -2,-3 10,-3 11,-1 18,6 50,0 -4,-4 -2,-3 -9,-8 -31,-21 -45,-12 -60,-55 0,25 -4,47 9,66z"/>
   <path class="fil42" d="M4303 5095c-1,-60 -42,-49 -66,-19 20,8 45,10 66,19z"/>
   <path class="fil43" d="M4399 4909c-6,13 -10,17 -16,26 13,-5 17,-8 25,-14 7,-19 3,-10 0,-15 -5,-1 -1,-1 -6,0 0,0 -2,2 -3,3z"/>
   <path class="fil44" d="M4389 4901l-12 -4 -7 14c8,7 8,6 16,11l3 -21z"/>
   <path class="fil45" d="M4291 4984c1,0 4,0 5,1 2,1 4,2 4,3l-3 0c0,0 -1,0 -2,0 -1,-1 -3,-2 -4,-2l0 -2z"/>
   <path class="fil45" d="M4324 4997c2,1 4,3 6,4 1,1 1,2 1,2l0 2c0,0 -2,-1 -3,-2 -2,-1 -4,-3 -5,-3l1 -3z"/>
   <path class="fil45" d="M4313 4994c-1,2 -2,7 -3,12 -1,6 -2,12 -5,14 -2,2 -5,1 -8,-5l2 -1c2,3 4,4 4,4 2,-1 3,-7 4,-13 1,-5 2,-10 4,-12l2 1z"/>
   <path class="fil45" d="M4286 5023c2,2 5,3 8,5 2,1 5,3 7,3l-1 3c-2,-1 -5,-2 -8,-4 -2,-1 -5,-3 -7,-4l1 -3z"/>
   <path class="fil46" d="M3363 4475l132 25 -48 -55c-7,-8 -12,-12 -17,-13 -6,-1 -13,1 -20,8l-2 -4 42 -36 3 3c-5,5 -8,9 -9,12 -1,3 -1,6 0,9 2,4 5,9 10,15l92 106 -3 3 -179 -32 71 82c6,7 12,11 18,10 5,0 10,-2 15,-6l3 -3 3 4 -46 39 -3 -3c7,-6 11,-12 11,-17 0,-6 -2,-12 -8,-18l-78 -91 -6 -1c-6,-1 -10,-2 -13,-1 -3,1 -7,3 -11,6l-2 -3 45 -39zm281 -1l2 3 -74 48 -2 -4 5 -3c4,-3 7,-5 8,-8 1,-3 2,-5 1,-8 0,-2 -3,-7 -7,-14l-61 -94c-4,-8 -8,-12 -10,-13 -2,-1 -4,-2 -7,-2 -4,0 -7,1 -11,4l-5 3 -2 -4 74 -47 2 3 -4 3c-5,3 -7,6 -9,9 -1,2 -1,5 -1,8 0,2 3,7 8,14l60 94c5,7 8,11 10,13 2,1 4,2 8,2 3,-1 6,-2 10,-4l5 -3zm80 -92l-53 26 1 19c0,6 1,10 3,13 2,5 5,7 10,7 2,0 8,-1 16,-4l2 3 -50 26 -2 -4c5,-4 8,-8 10,-14 1,-5 2,-15 1,-29l-7 -148 2 -1 117 96c11,10 19,15 24,16 4,1 8,1 13,-1l2 4 -73 37 -2 -4 3 -2c6,-3 10,-6 11,-8 1,-2 1,-5 0,-7 -1,-1 -2,-3 -3,-4 0,0 -3,-3 -7,-7l-18 -14zm-8 -7l-48 -40 3 63 45 -23zm159 -184l19 53 -5 1c-7,-12 -16,-21 -28,-26 -11,-5 -22,-6 -33,-2 -8,2 -13,7 -17,13 -3,5 -4,11 -2,17 2,3 4,6 6,8 4,3 9,6 15,7 4,2 15,3 30,5 22,3 38,8 47,14 9,5 16,14 19,24 5,14 4,27 -3,40 -8,13 -19,23 -35,28 -5,2 -10,3 -15,4 -5,0 -11,0 -19,0 -4,-1 -8,0 -10,0 -2,1 -4,3 -6,5 -1,2 -2,5 -3,9l-4 2 -21 -61 5 -1c9,16 20,26 33,32 13,5 25,6 36,2 9,-3 15,-8 19,-14 4,-7 4,-13 2,-20 -1,-3 -3,-7 -7,-10 -3,-3 -7,-5 -12,-7 -5,-1 -14,-3 -26,-5 -17,-2 -30,-4 -38,-7 -8,-3 -15,-7 -20,-12 -6,-5 -10,-11 -12,-19 -5,-12 -4,-25 2,-37 7,-12 17,-21 31,-26 5,-1 11,-3 16,-3 4,0 9,0 15,1 6,0 10,0 13,0 2,-1 3,-2 4,-4 1,-2 1,-5 0,-10l4 -1zm237 -45l8 56 -5 0c-4,-14 -11,-24 -22,-31 -10,-8 -21,-11 -32,-10 -8,2 -15,5 -19,10 -4,5 -6,10 -5,16 0,4 1,7 4,10 2,3 7,7 12,10 5,2 14,6 29,11 21,7 35,15 43,22 8,8 13,17 14,29 2,14 -2,26 -12,38 -10,11 -23,18 -40,20 -5,1 -10,1 -15,0 -5,0 -11,-2 -18,-4 -5,-1 -8,-1 -10,-1 -3,0 -5,2 -7,3 -2,2 -4,5 -5,9l-4 0 -8 -63 4 -1c6,18 15,31 26,39 12,8 24,11 36,9 9,-1 16,-4 21,-10 5,-6 7,-12 6,-18 -1,-4 -2,-8 -5,-11 -2,-4 -6,-7 -11,-10 -4,-3 -12,-6 -24,-10 -16,-6 -28,-11 -35,-15 -8,-5 -13,-10 -18,-16 -4,-6 -7,-13 -8,-21 -2,-13 2,-25 11,-36 8,-11 20,-17 35,-19 5,0 11,0 16,0 4,1 9,2 15,4 6,2 10,3 12,3 2,-1 4,-1 5,-3 1,-1 2,-5 2,-10l4 0zm108 7l2 68 3 0c11,0 19,-4 23,-10 5,-7 8,-17 9,-30l5 -1 2 89 -5 0c-1,-9 -3,-17 -7,-23 -3,-6 -7,-10 -11,-12 -5,-2 -11,-3 -19,-3l2 47c0,10 0,15 1,17 1,3 3,4 5,5 2,2 6,2 10,2l10 0c16,-1 29,-5 38,-12 9,-8 16,-19 20,-34l4 0 -6 54 -146 4 0 -4 6 -1c5,0 8,-1 11,-3 3,-1 4,-3 5,-6 1,-2 1,-7 1,-16l-3 -111c0,-8 -1,-13 -1,-14 -1,-3 -3,-5 -5,-7 -3,-2 -7,-3 -13,-3l-6 0 0 -4 142 -4 1 50 -5 0c-2,-12 -6,-21 -11,-26 -4,-5 -10,-9 -18,-11 -5,-2 -14,-2 -26,-2l-18 1zm273 119l-14 58 -148 -18 0 -4 6 0c5,1 9,1 12,-1 2,-1 4,-3 5,-5 2,-2 3,-7 4,-16l13 -111c1,-8 2,-14 1,-16 -1,-2 -2,-4 -5,-6 -2,-2 -6,-3 -11,-4l-5 -1 0 -4 90 11 -1 4 -7 -1c-5,0 -9,0 -12,2 -2,0 -4,2 -6,5 -1,2 -2,7 -3,15l-14 108c-1,8 -1,14 0,16 1,3 2,5 5,6 2,1 7,2 15,3l14 2c9,1 16,0 22,-2 7,-2 13,-7 18,-13 5,-6 10,-16 16,-28l5 0zm117 43l-57 -16 -12 14c-3,5 -6,9 -7,12 -1,5 0,9 3,12 2,2 7,4 15,7l-1 4 -54 -15 1 -4c6,1 11,0 16,-3 5,-3 12,-10 21,-21l95 -113 2 0 21 150c2,14 5,24 7,28 2,3 6,6 11,8l-2 4 -78 -22 1 -4 3 0c6,2 11,3 14,2 2,-1 4,-3 4,-5 1,-2 1,-3 1,-5 0,-1 0,-4 -1,-10l-3 -23zm-2 -10l-8 -62 -41 48 49 14zm263 -17l-19 42 -4 -2c2,-11 3,-19 2,-24 -2,-6 -4,-11 -8,-16 -2,-3 -7,-5 -14,-9l-12 -5 -54 119c-3,8 -5,13 -5,16 0,2 1,5 3,7 2,3 5,5 9,7l5 2 -2 4 -80 -36 2 -4 5 2c4,2 8,3 12,3 2,0 4,-1 7,-4 1,-1 4,-6 7,-13l54 -120 -11 -5c-10,-4 -19,-5 -26,-3 -9,3 -17,10 -24,20l-4 -2 18 -41 139 62zm38 161l-51 -30 -15 11c-5,4 -8,7 -10,10 -2,4 -2,8 0,12 1,2 5,6 13,11l-2 4 -49 -28 2 -4c6,2 11,3 17,1 5,-2 14,-7 25,-15l120 -87 2 1 -16 151c-2,14 -2,24 0,28 1,4 3,7 8,10l-2 4 -71 -40 2 -4 3 1c5,4 10,5 13,5 2,0 4,-2 5,-4 1,-1 2,-3 2,-4 0,-1 1,-4 1,-10l3 -23zm1 -10l7 -63 -51 37 44 26zm202 6l-6 134 48 -55c6,-8 10,-14 10,-19 0,-6 -4,-12 -11,-18l3 -4 42 37 -3 3c-6,-4 -10,-6 -13,-6 -3,-1 -6,0 -9,1 -3,2 -7,6 -13,12l-92 106 -3 -3 6 -181 -71 82c-6,7 -9,13 -8,19 2,5 4,10 9,14l3 2 -3 4 -46 -40 3 -3c7,6 13,9 19,8 5,0 10,-4 16,-10l79 -91 0 -6c0,-5 0,-10 -1,-13 -1,-2 -4,-6 -7,-9l2 -3 46 39z"/>
   <path class="fil46" d="M3810 6671l10 55 4 -1c6,-1 11,-3 14,-5 4,-3 6,-6 8,-11 2,-5 2,-11 2,-18l3 -1 13 67 -4 1c-3,-13 -8,-20 -15,-23 -6,-3 -12,-4 -19,-3l-4 1 7 41c2,6 3,11 4,12 1,2 3,3 5,4 2,1 6,1 9,0l5 -1 0 4 -69 13 -1 -4 5 0c4,-1 7,-2 9,-4 1,-2 2,-3 3,-6 0,-1 0,-6 -2,-12l-16 -88c-1,-7 -2,-11 -3,-13 -2,-1 -3,-3 -6,-4 -2,0 -5,-1 -9,0l-4 1 -1 -3 112 -21 7 38 -4 1c-2,-9 -6,-15 -10,-19 -5,-4 -11,-6 -18,-6 -5,0 -12,0 -23,2l-12 3zm161 -32l69 -5 1 4 -4 0c-5,0 -9,1 -10,2 -2,1 -4,3 -4,5 -1,2 -1,7 -1,15l5 66c1,12 2,20 4,24 2,3 5,7 10,9 4,2 10,3 16,3 7,-1 13,-3 18,-7 5,-3 9,-8 11,-14 2,-6 3,-16 2,-30l-4 -55c0,-7 -1,-11 -3,-13 -1,-3 -3,-5 -5,-5 -3,-2 -7,-2 -13,-2l0 -3 47 -4 0 4 -3 0c-4,0 -7,1 -9,3 -3,2 -4,4 -5,7 -1,3 -1,6 -1,12l4 51c1,16 1,28 -1,35 -2,7 -6,14 -14,20 -8,7 -19,11 -33,11 -11,1 -20,0 -27,-2 -9,-4 -15,-9 -19,-16 -4,-6 -7,-15 -8,-26l-4 -66c-1,-8 -1,-13 -2,-15 -1,-1 -3,-3 -5,-4 -2,-1 -6,-1 -12,-1l0 -3zm281 61l0 38c0,7 0,12 1,14 1,2 2,3 4,4 3,2 7,2 13,2l0 4 -69 -1 0 -4c6,0 10,0 13,-1 2,-2 4,-3 4,-5 1,-2 2,-6 2,-14l2 -88c0,-7 -1,-12 -2,-14 0,-2 -2,-3 -4,-5 -2,-1 -7,-1 -13,-1l0 -4 63 1c16,0 28,2 36,4 8,3 14,7 18,13 5,6 7,13 7,22 0,10 -4,18 -11,24 -5,4 -11,7 -20,9l32 47c4,6 7,9 9,11 3,2 6,3 10,3l0 4 -43 -1 -43 -62 -9 0zm1 -67l-1 60 6 0c9,0 16,-1 21,-3 5,-1 8,-4 11,-8 3,-5 4,-11 4,-18 0,-10 -2,-18 -7,-23 -4,-5 -12,-7 -23,-7l-11 -1zm254 103l-47 -4 -7 12c-2,5 -4,8 -4,11 0,4 1,7 4,9 1,1 6,2 13,4l-1 3 -44 -4 0 -4c5,0 9,-2 12,-5 4,-3 8,-9 14,-19l58 -103 2 0 38 115c4,11 7,18 10,21 2,3 5,4 9,5l0 3 -65 -6 0 -3 3 0c5,0 9,0 11,-1 1,-1 2,-3 2,-5 0,-1 0,-2 0,-3 0,-1 -1,-4 -2,-8l-6 -18zm-2 -7l-16 -48 -25 44 41 4zm209 73l-1 3 -69 -12 0 -4 5 1c4,1 7,1 9,0 2,-1 4,-2 5,-4 1,-2 2,-6 4,-13l16 -87c1,-7 1,-12 1,-13 0,-2 -2,-4 -4,-6 -2,-1 -4,-3 -8,-3l-5 -1 1 -4 69 13 0 4 -5 -1c-3,-1 -7,-1 -9,0 -2,1 -4,2 -5,4 -1,2 -2,6 -3,12l-16 88c-2,7 -2,12 -2,13 1,2 2,4 4,6 2,1 5,3 8,3l5 1z"/>
   <path class="fil47" d="M3786 6898c4,-10 10,-14 17,-14 6,-1 11,2 15,6 4,4 7,10 7,15 0,8 -4,17 -16,22l0 0c-9,4 -18,4 -26,2 -6,-1 -12,-5 -16,-9 -4,-5 -6,-10 -7,-16 -1,-7 0,-14 5,-22l0 0c21,-31 47,-18 77,3 5,3 9,6 13,9l4 2c3,2 5,4 8,6 -2,-4 -4,-8 -4,-12 -1,-7 1,-14 5,-21l0 -1c21,-30 47,-18 78,3 4,3 8,6 13,9l3 3c4,3 8,5 11,6 -3,-3 -5,-8 -5,-13 -1,-6 0,-14 5,-21l0 0c21,-31 47,-18 77,2 5,3 9,6 13,10l4 2c2,2 5,3 7,5 -2,-4 -3,-7 -4,-11 0,-7 1,-14 5,-21l1 -1c20,-30 47,-18 77,3 4,3 9,6 13,9l4 3c8,6 15,9 21,10 5,1 10,0 17,-1 4,-1 9,-3 13,-5 4,-3 7,-6 9,-10 2,-3 2,-8 1,-12 -1,-3 -2,-6 -4,-10 -5,-7 -12,-10 -19,-10 -4,0 -8,1 -11,3 -3,1 -6,3 -8,6 -3,3 -4,8 -2,13 2,6 8,9 13,9 1,0 3,0 4,0 2,-1 2,-1 3,-2 1,-3 1,-6 -2,-12l10 -6c5,10 5,18 2,24 -2,3 -5,5 -8,6 -3,2 -7,2 -10,2 -9,-1 -19,-6 -23,-17l0 -1c-3,-9 -1,-17 4,-24 3,-4 8,-7 12,-9 5,-2 11,-3 16,-3 11,0 21,4 28,15l0 0c3,5 5,9 6,13 2,8 1,15 -2,20 -3,6 -8,11 -13,14 -5,4 -11,6 -16,7l0 0c-8,2 -15,3 -22,2 -8,-2 -16,-5 -26,-13l-4 -2c-4,-3 -8,-7 -12,-9 -25,-17 -47,-28 -62,-6 -3,5 -4,9 -3,14 0,3 2,7 4,10 3,2 6,4 10,6 3,0 6,1 9,0l1 0 0 0c3,0 6,-1 9,-2 6,-3 9,-7 9,-11 0,-3 -2,-6 -4,-8 -1,-1 -4,-3 -6,-2 -2,0 -5,2 -7,7l-11 -4c5,-10 11,-15 18,-15 5,0 11,2 15,6 4,4 6,10 6,16 0,8 -4,16 -15,22l-1 0c-4,1 -8,2 -12,3 -8,1 -14,2 -21,1 -7,-1 -15,-5 -26,-13l-3 -2c-5,-3 -9,-6 -13,-9 -25,-17 -46,-28 -61,-6 -3,5 -4,10 -4,14 1,4 2,7 5,10 2,3 6,5 10,6 5,1 12,1 18,-2 7,-3 9,-7 9,-11 0,-2 -1,-5 -3,-7 -2,-2 -4,-3 -6,-3 -3,0 -5,2 -7,7l-11 -4c4,-10 10,-14 17,-15 6,0 11,3 15,7 4,4 7,9 7,15 0,8 -4,17 -16,22l0 0c-5,2 -10,3 -14,3 -8,2 -14,3 -22,2 -7,-2 -15,-5 -26,-13l-3 -2c-4,-4 -9,-7 -13,-9 -25,-17 -46,-28 -61,-6 -3,5 -4,9 -4,14 1,3 2,7 5,9 3,3 6,5 10,7 5,1 12,1 19,-2 6,-3 8,-7 8,-11 0,-3 -1,-6 -3,-8 -2,-2 -4,-3 -6,-3 -2,1 -5,3 -7,8l-11 -4c4,-10 11,-15 17,-15 6,0 11,2 15,6 4,4 7,10 7,16 0,8 -4,16 -16,21l0 1c-4,1 -8,2 -12,3l0 0c-8,1 -14,3 -22,1 -7,-1 -15,-5 -26,-12l-3 -3c-5,-3 -9,-6 -13,-9 -25,-17 -46,-28 -61,-6 -3,5 -4,10 -4,14 1,4 2,7 5,10 2,3 6,5 10,6 5,2 12,1 18,-2 7,-3 9,-7 9,-10 0,-3 -1,-6 -3,-8 -2,-2 -4,-3 -6,-3 -3,0 -5,2 -7,8l-11 -5z"/>
   <path class="fil47" d="M4711 6898c-4,-10 -10,-14 -17,-14 -6,-1 -11,2 -15,6 -4,4 -6,10 -7,15 0,8 5,17 16,22l0 0c10,4 19,4 26,2 7,-1 12,-5 16,-9 4,-5 7,-10 7,-16 1,-7 0,-14 -5,-22l0 0c-21,-31 -47,-18 -77,3 -5,3 -9,6 -13,9l-4 2c-3,2 -5,4 -8,6 2,-4 4,-8 4,-12 1,-7 0,-14 -5,-21l0 -1c-21,-30 -47,-18 -77,3 -5,3 -9,6 -13,9l-4 3c-4,3 -7,5 -11,6 3,-3 5,-8 5,-13 1,-6 0,-14 -5,-21l0 0c-21,-31 -47,-18 -77,2 -5,3 -9,6 -13,10l-4 2c-2,2 -4,3 -7,5 2,-4 3,-7 4,-11 1,-7 -1,-14 -5,-21l0 -1c-21,-30 -48,-18 -78,3 -4,3 -9,6 -13,9l-3 3c-9,6 -16,9 -21,10 -6,1 -11,0 -18,-1 -4,-1 -9,-3 -12,-5 -4,-3 -8,-6 -10,-10 -1,-3 -2,-8 -1,-12 1,-3 2,-6 4,-10 5,-7 12,-10 19,-10 4,0 8,1 11,3 3,1 6,3 8,6 3,3 4,8 3,13 -3,6 -8,9 -13,9 -2,0 -4,0 -5,0 -1,-1 -2,-1 -3,-2 -1,-3 -1,-6 2,-12l-9 -6c-6,10 -6,18 -3,24 2,3 5,5 8,6 3,2 7,2 11,2 8,-1 18,-6 22,-17l1 -1c2,-9 0,-17 -5,-24 -3,-4 -7,-7 -12,-9 -5,-2 -10,-3 -16,-3 -10,0 -21,4 -28,15l0 0c-3,5 -5,9 -6,13 -2,8 -1,15 2,20 3,6 8,11 13,14 5,4 11,6 16,7l0 0c9,2 15,3 23,2 7,-2 15,-5 25,-13l4 -2c4,-3 9,-7 13,-9 25,-17 46,-28 61,-6 3,5 4,9 3,14 0,3 -2,7 -4,10 -3,2 -6,4 -10,6 -3,0 -6,1 -9,0l-1 0 0 0c-3,0 -6,-1 -9,-2 -6,-3 -9,-7 -9,-11 0,-3 2,-6 4,-8 2,-1 4,-3 6,-2 2,0 5,2 7,7l11 -4c-4,-10 -11,-15 -17,-15 -6,0 -12,2 -16,6 -3,4 -6,10 -6,16 0,8 4,16 16,22l0 0c4,1 8,2 12,3 8,1 14,2 21,1 8,-1 15,-5 26,-13l3 -2c5,-3 9,-6 13,-9 25,-17 47,-28 62,-6 2,5 3,10 3,14 -1,4 -2,7 -5,10 -2,3 -6,5 -10,6 -5,1 -11,1 -18,-2 -7,-3 -9,-7 -9,-11 0,-2 1,-5 3,-7 2,-2 4,-3 6,-3 3,0 5,2 8,7l10 -4c-4,-10 -10,-14 -17,-15 -6,0 -11,3 -15,7 -4,4 -6,9 -7,15 0,8 5,17 16,22l0 0c5,2 10,3 14,3 8,2 15,3 22,2 7,-2 15,-5 26,-13l3 -2c5,-4 9,-7 13,-9 25,-17 46,-28 61,-6 3,5 4,9 4,14 -1,3 -2,7 -5,9 -2,3 -6,5 -10,7 -5,1 -12,1 -18,-2 -7,-3 -9,-7 -9,-11 0,-3 1,-6 3,-8 2,-2 4,-3 6,-3 3,1 5,3 7,8l11 -4c-4,-10 -10,-15 -17,-15 -6,0 -11,2 -15,6 -4,4 -7,10 -7,16 0,8 4,16 16,21l0 1c4,1 8,2 12,3l0 0c8,1 15,3 22,1 8,-1 15,-5 26,-12l3 -3c5,-3 9,-6 13,-9 25,-17 47,-28 62,-6 2,5 3,10 3,14 -1,4 -2,7 -5,10 -2,3 -6,5 -10,6 -5,2 -11,1 -18,-2 -7,-3 -9,-7 -9,-10 0,-3 1,-6 3,-8 2,-2 4,-3 6,-3 3,0 5,2 8,8l10 -5z"/>
  </g>
 </g>
</svg>
